M48
; DRILL file {KiCad 7.0.2} date Sat 22 Apr 2023 08:19:11 PM -03
; FORMAT={-:-/ absolute / inch / decimal}
; #@! TF.CreationDate,2023-04-22T20:19:11-03:00
; #@! TF.GenerationSoftware,Kicad,Pcbnew,7.0.2
; #@! TF.FileFunction,Plated,1,2,PTH
FMAT,2
INCH
; #@! TA.AperFunction,Plated,PTH,ComponentDrill
T1C0.0362
; #@! TA.AperFunction,Plated,PTH,ComponentDrill
T2C0.0394
; #@! TA.AperFunction,Plated,PTH,ComponentDrill
T3C0.0906
%
G90
G05
T1
X6.2402Y-3.1389
X6.3386Y-3.1389
X6.4173Y-3.1389
X6.5157Y-3.1389
X6.7913Y-3.4753
X6.8898Y-3.4753
X6.9685Y-3.4753
X7.0669Y-3.4753
X7.3819Y-3.1389
X7.4803Y-3.1389
X7.5591Y-3.1389
X7.6575Y-3.1389
T2
X6.8472Y-2.7559
X6.8472Y-2.9134
X6.8472Y-3.0709
X6.8472Y-3.2283
X6.9472Y-2.7559
X6.9472Y-2.9134
X6.9472Y-3.0709
X6.9472Y-3.2283
X7.0472Y-2.7559
X7.0472Y-2.9134
X7.0472Y-3.0709
X7.0472Y-3.2283
T3
X6.1193Y-3.0322
X6.6366Y-3.0322
X6.6705Y-3.582
X7.1878Y-3.582
X7.261Y-3.0322
X7.7783Y-3.0322
T0
M30
