%TF.GenerationSoftware,KiCad,Pcbnew,7.0.2*%
%TF.CreationDate,2023-04-22T20:19:08-03:00*%
%TF.ProjectId,usbsplitter,75736273-706c-4697-9474-65722e6b6963,1.0.1*%
%TF.SameCoordinates,Original*%
%TF.FileFunction,Copper,L1,Top*%
%TF.FilePolarity,Positive*%
%FSLAX46Y46*%
G04 Gerber Fmt 4.6, Leading zero omitted, Abs format (unit mm)*
G04 Created by KiCad (PCBNEW 7.0.2) date 2023-04-22 20:19:08*
%MOMM*%
%LPD*%
G01*
G04 APERTURE LIST*
%TA.AperFunction,ComponentPad*%
%ADD10R,1.700000X1.700000*%
%TD*%
%TA.AperFunction,ComponentPad*%
%ADD11O,1.700000X1.700000*%
%TD*%
%TA.AperFunction,ComponentPad*%
%ADD12R,1.524000X1.524000*%
%TD*%
%TA.AperFunction,ComponentPad*%
%ADD13C,1.524000*%
%TD*%
%TA.AperFunction,ComponentPad*%
%ADD14C,3.500000*%
%TD*%
%TA.AperFunction,Conductor*%
%ADD15C,0.800000*%
%TD*%
G04 APERTURE END LIST*
D10*
%TO.P,SW4,1,A*%
%TO.N,/GNDA*%
X179000000Y-82000000D03*
D11*
%TO.P,SW4,2,B*%
%TO.N,GND*%
X176460000Y-82000000D03*
%TO.P,SW4,3,C*%
%TO.N,/GNDB*%
X173920000Y-82000000D03*
%TD*%
D10*
%TO.P,SW3,1,A*%
%TO.N,/D-A*%
X179000000Y-74000000D03*
D11*
%TO.P,SW3,2,B*%
%TO.N,/D-*%
X176460000Y-74000000D03*
%TO.P,SW3,3,C*%
%TO.N,/D-B*%
X173920000Y-74000000D03*
%TD*%
D10*
%TO.P,SW2,1,A*%
%TO.N,/D+A*%
X179000000Y-78000000D03*
D11*
%TO.P,SW2,2,B*%
%TO.N,/D+*%
X176460000Y-78000000D03*
%TO.P,SW2,3,C*%
%TO.N,/D+B*%
X173920000Y-78000000D03*
%TD*%
D10*
%TO.P,SW1,1,A*%
%TO.N,/5VA*%
X179000000Y-70000000D03*
D11*
%TO.P,SW1,2,B*%
%TO.N,+5V*%
X176460000Y-70000000D03*
%TO.P,SW1,3,C*%
%TO.N,/5VB*%
X173920000Y-70000000D03*
%TD*%
D12*
%TO.P,OUT2,1,VBUS*%
%TO.N,/5VB*%
X165500000Y-79727500D03*
D13*
%TO.P,OUT2,2,D-*%
%TO.N,/D-B*%
X163000000Y-79727500D03*
%TO.P,OUT2,3,D+*%
%TO.N,/D+B*%
X161000000Y-79727500D03*
%TO.P,OUT2,4,GND*%
%TO.N,/GNDB*%
X158500000Y-79727500D03*
D14*
%TO.P,OUT2,5,Shield*%
X155430000Y-77017500D03*
X168570000Y-77017500D03*
%TD*%
D12*
%TO.P,OUT1,1,VBUS*%
%TO.N,/5VA*%
X194500000Y-79727500D03*
D13*
%TO.P,OUT1,2,D-*%
%TO.N,/D-A*%
X192000000Y-79727500D03*
%TO.P,OUT1,3,D+*%
%TO.N,/D+A*%
X190000000Y-79727500D03*
%TO.P,OUT1,4,GND*%
%TO.N,/GNDA*%
X187500000Y-79727500D03*
D14*
%TO.P,OUT1,5,Shield*%
X184430000Y-77017500D03*
X197570000Y-77017500D03*
%TD*%
D12*
%TO.P,IN1,1,VBUS*%
%TO.N,+5V*%
X172500000Y-88272500D03*
D13*
%TO.P,IN1,2,D-*%
%TO.N,/D-*%
X175000000Y-88272500D03*
%TO.P,IN1,3,D+*%
%TO.N,/D+*%
X177000000Y-88272500D03*
%TO.P,IN1,4,GND*%
%TO.N,GND*%
X179500000Y-88272500D03*
D14*
%TO.P,IN1,5,Shield*%
X182570000Y-90982500D03*
X169430000Y-90982500D03*
%TD*%
D15*
%TO.N,+5V*%
X172500000Y-88272500D02*
X167020393Y-82792893D01*
X174460000Y-68000000D02*
X176460000Y-70000000D01*
X167020393Y-82792893D02*
X159639234Y-82792893D01*
X159639234Y-82792893D02*
X157138000Y-80291659D01*
X157138000Y-80291659D02*
X157138000Y-78862000D01*
X157138000Y-78862000D02*
X168000000Y-68000000D01*
X168000000Y-68000000D02*
X174460000Y-68000000D01*
%TO.N,GND*%
X176460000Y-85232500D02*
X176460000Y-82000000D01*
%TO.N,/D+*%
X177000000Y-88272500D02*
X172470000Y-83742500D01*
X172470000Y-83742500D02*
X172470000Y-81399390D01*
X172470000Y-81399390D02*
X173869390Y-80000000D01*
X174460000Y-80000000D02*
X176460000Y-78000000D01*
X173869390Y-80000000D02*
X174460000Y-80000000D01*
%TO.N,/D-*%
X171470000Y-84742500D02*
X171470000Y-77530000D01*
X171470000Y-77530000D02*
X173550000Y-75450000D01*
X173550000Y-75450000D02*
X175010000Y-75450000D01*
X175010000Y-75450000D02*
X176460000Y-74000000D01*
%TO.N,/5VA*%
X187886250Y-73113750D02*
X194500000Y-79727500D01*
X179000000Y-70000000D02*
X184772500Y-70000000D01*
X184772500Y-70000000D02*
X187886250Y-73113750D01*
%TO.N,/5VB*%
X170460000Y-71460000D02*
X165500000Y-76420000D01*
X173920000Y-70000000D02*
X171920000Y-70000000D01*
X171920000Y-70000000D02*
X170460000Y-71460000D01*
%TO.N,GND*%
X169430000Y-90982500D02*
X179000000Y-90982500D01*
X179000000Y-90982500D02*
X182570000Y-90982500D01*
X179500000Y-88272500D02*
X179500000Y-90482500D01*
X179500000Y-90482500D02*
X179000000Y-90982500D01*
%TO.N,/GNDB*%
X168570000Y-77017500D02*
X168570000Y-79492373D01*
X168570000Y-79492373D02*
X166269480Y-81792893D01*
X166269480Y-81792893D02*
X160565393Y-81792893D01*
X160565393Y-81792893D02*
X158500000Y-79727500D01*
%TO.N,/5VB*%
X165500000Y-76420000D02*
X165500000Y-79727500D01*
%TO.N,/D-*%
X171470000Y-84742500D02*
X175000000Y-88272500D01*
%TO.N,GND*%
X176460000Y-85232500D02*
X179500000Y-88272500D01*
%TD*%
%TA.AperFunction,Conductor*%
%TO.N,GND*%
G36*
X200942539Y-65020185D02*
G01*
X200988294Y-65072989D01*
X200999500Y-65124500D01*
X200999500Y-102875500D01*
X200979815Y-102942539D01*
X200927011Y-102988294D01*
X200875500Y-102999500D01*
X152124500Y-102999500D01*
X152057461Y-102979815D01*
X152011706Y-102927011D01*
X152000500Y-102875500D01*
X152000500Y-99067764D01*
X154145787Y-99067764D01*
X154175413Y-99337016D01*
X154243928Y-99599087D01*
X154349871Y-99848392D01*
X154490982Y-100079611D01*
X154580253Y-100186881D01*
X154664255Y-100287820D01*
X154865998Y-100468582D01*
X155091910Y-100618044D01*
X155198211Y-100667876D01*
X155337177Y-100733021D01*
X155596562Y-100811058D01*
X155596569Y-100811060D01*
X155864561Y-100850500D01*
X155864564Y-100850500D01*
X156065369Y-100850500D01*
X156067631Y-100850500D01*
X156270156Y-100835677D01*
X156534553Y-100776780D01*
X156787558Y-100680014D01*
X157023777Y-100547441D01*
X157238177Y-100381888D01*
X157426186Y-100186881D01*
X157583799Y-99966579D01*
X157707656Y-99725675D01*
X157795118Y-99469305D01*
X157844319Y-99202933D01*
X157849259Y-99067764D01*
X195145787Y-99067764D01*
X195175413Y-99337016D01*
X195243928Y-99599087D01*
X195349871Y-99848392D01*
X195490982Y-100079611D01*
X195580253Y-100186881D01*
X195664255Y-100287820D01*
X195865998Y-100468582D01*
X196091910Y-100618044D01*
X196198211Y-100667876D01*
X196337177Y-100733021D01*
X196596562Y-100811058D01*
X196596569Y-100811060D01*
X196864561Y-100850500D01*
X196864564Y-100850500D01*
X197065369Y-100850500D01*
X197067631Y-100850500D01*
X197270156Y-100835677D01*
X197534553Y-100776780D01*
X197787558Y-100680014D01*
X198023777Y-100547441D01*
X198238177Y-100381888D01*
X198426186Y-100186881D01*
X198583799Y-99966579D01*
X198707656Y-99725675D01*
X198795118Y-99469305D01*
X198844319Y-99202933D01*
X198854212Y-98932235D01*
X198824586Y-98662982D01*
X198756072Y-98400912D01*
X198650130Y-98151610D01*
X198509018Y-97920390D01*
X198509017Y-97920388D01*
X198335746Y-97712181D01*
X198230759Y-97618112D01*
X198134002Y-97531418D01*
X197908090Y-97381956D01*
X197908086Y-97381954D01*
X197662822Y-97266978D01*
X197403437Y-97188941D01*
X197403431Y-97188940D01*
X197135439Y-97149500D01*
X196932369Y-97149500D01*
X196930120Y-97149664D01*
X196930109Y-97149665D01*
X196729843Y-97164322D01*
X196465449Y-97223219D01*
X196212441Y-97319986D01*
X195976223Y-97452559D01*
X195761825Y-97618109D01*
X195573813Y-97813120D01*
X195416201Y-98033420D01*
X195292342Y-98274329D01*
X195204881Y-98530695D01*
X195155680Y-98797066D01*
X195145787Y-99067764D01*
X157849259Y-99067764D01*
X157854212Y-98932235D01*
X157824586Y-98662982D01*
X157756072Y-98400912D01*
X157650130Y-98151610D01*
X157509018Y-97920390D01*
X157509017Y-97920388D01*
X157335746Y-97712181D01*
X157230759Y-97618112D01*
X157134002Y-97531418D01*
X156908090Y-97381956D01*
X156908086Y-97381954D01*
X156662822Y-97266978D01*
X156403437Y-97188941D01*
X156403431Y-97188940D01*
X156135439Y-97149500D01*
X155932369Y-97149500D01*
X155930120Y-97149664D01*
X155930109Y-97149665D01*
X155729843Y-97164322D01*
X155465449Y-97223219D01*
X155212441Y-97319986D01*
X154976223Y-97452559D01*
X154761825Y-97618109D01*
X154573813Y-97813120D01*
X154416201Y-98033420D01*
X154292342Y-98274329D01*
X154204881Y-98530695D01*
X154155680Y-98797066D01*
X154145787Y-99067764D01*
X152000500Y-99067764D01*
X152000500Y-90986543D01*
X167175437Y-90986543D01*
X167194197Y-91272771D01*
X167195253Y-91280793D01*
X167251210Y-91562108D01*
X167253307Y-91569936D01*
X167345505Y-91841538D01*
X167348607Y-91849028D01*
X167475466Y-92106274D01*
X167479516Y-92113288D01*
X167638866Y-92351771D01*
X167643805Y-92358208D01*
X167670405Y-92388539D01*
X167670406Y-92388539D01*
X168459438Y-91599507D01*
X168508348Y-91678499D01*
X168651931Y-91836001D01*
X168810388Y-91955663D01*
X168023959Y-92742092D01*
X168023959Y-92742093D01*
X168054291Y-92768694D01*
X168060728Y-92773633D01*
X168299211Y-92932983D01*
X168306225Y-92937033D01*
X168563471Y-93063892D01*
X168570961Y-93066994D01*
X168842563Y-93159192D01*
X168850391Y-93161289D01*
X169131706Y-93217246D01*
X169139728Y-93218302D01*
X169425957Y-93237063D01*
X169434043Y-93237063D01*
X169720271Y-93218302D01*
X169728293Y-93217246D01*
X170009608Y-93161289D01*
X170017436Y-93159192D01*
X170289038Y-93066994D01*
X170296528Y-93063892D01*
X170553774Y-92937033D01*
X170560788Y-92932983D01*
X170799273Y-92773632D01*
X170805698Y-92768701D01*
X170836040Y-92742092D01*
X170049611Y-91955663D01*
X170208069Y-91836001D01*
X170351652Y-91678499D01*
X170400560Y-91599508D01*
X171189592Y-92388540D01*
X171216201Y-92358198D01*
X171221132Y-92351773D01*
X171380483Y-92113288D01*
X171384533Y-92106274D01*
X171511392Y-91849028D01*
X171514494Y-91841538D01*
X171606692Y-91569936D01*
X171608789Y-91562108D01*
X171664746Y-91280793D01*
X171665802Y-91272771D01*
X171684563Y-90986543D01*
X180315437Y-90986543D01*
X180334197Y-91272771D01*
X180335253Y-91280793D01*
X180391210Y-91562108D01*
X180393307Y-91569936D01*
X180485505Y-91841538D01*
X180488607Y-91849028D01*
X180615466Y-92106274D01*
X180619516Y-92113288D01*
X180778866Y-92351771D01*
X180783805Y-92358208D01*
X180810405Y-92388539D01*
X180810406Y-92388539D01*
X181599438Y-91599507D01*
X181648348Y-91678499D01*
X181791931Y-91836001D01*
X181950388Y-91955663D01*
X181163959Y-92742092D01*
X181163959Y-92742093D01*
X181194291Y-92768694D01*
X181200728Y-92773633D01*
X181439211Y-92932983D01*
X181446225Y-92937033D01*
X181703471Y-93063892D01*
X181710961Y-93066994D01*
X181982563Y-93159192D01*
X181990391Y-93161289D01*
X182271706Y-93217246D01*
X182279728Y-93218302D01*
X182565957Y-93237063D01*
X182574043Y-93237063D01*
X182860271Y-93218302D01*
X182868293Y-93217246D01*
X183149608Y-93161289D01*
X183157436Y-93159192D01*
X183429038Y-93066994D01*
X183436528Y-93063892D01*
X183693774Y-92937033D01*
X183700788Y-92932983D01*
X183939273Y-92773632D01*
X183945698Y-92768701D01*
X183976040Y-92742092D01*
X183189611Y-91955663D01*
X183348069Y-91836001D01*
X183491652Y-91678499D01*
X183540560Y-91599508D01*
X184329592Y-92388540D01*
X184356201Y-92358198D01*
X184361132Y-92351773D01*
X184520483Y-92113288D01*
X184524533Y-92106274D01*
X184651392Y-91849028D01*
X184654494Y-91841538D01*
X184746692Y-91569936D01*
X184748789Y-91562108D01*
X184804746Y-91280793D01*
X184805802Y-91272771D01*
X184824563Y-90986543D01*
X184824563Y-90978456D01*
X184805802Y-90692228D01*
X184804746Y-90684206D01*
X184748789Y-90402891D01*
X184746692Y-90395063D01*
X184654494Y-90123461D01*
X184651392Y-90115971D01*
X184524533Y-89858725D01*
X184520483Y-89851711D01*
X184361133Y-89613228D01*
X184356194Y-89606791D01*
X184329592Y-89576459D01*
X183540560Y-90365491D01*
X183491652Y-90286501D01*
X183348069Y-90128999D01*
X183189610Y-90009335D01*
X183976039Y-89222906D01*
X183976039Y-89222905D01*
X183945708Y-89196305D01*
X183939271Y-89191366D01*
X183700788Y-89032016D01*
X183693774Y-89027966D01*
X183436528Y-88901107D01*
X183429038Y-88898005D01*
X183157436Y-88805807D01*
X183149608Y-88803710D01*
X182868293Y-88747753D01*
X182860271Y-88746697D01*
X182574043Y-88727937D01*
X182565957Y-88727937D01*
X182279728Y-88746697D01*
X182271706Y-88747753D01*
X181990391Y-88803710D01*
X181982563Y-88805807D01*
X181710961Y-88898005D01*
X181703471Y-88901107D01*
X181446225Y-89027966D01*
X181439211Y-89032016D01*
X181200723Y-89191369D01*
X181194295Y-89196301D01*
X181163958Y-89222905D01*
X181163958Y-89222906D01*
X181950388Y-90009336D01*
X181791931Y-90128999D01*
X181648348Y-90286501D01*
X181599439Y-90365491D01*
X180810406Y-89576458D01*
X180810405Y-89576458D01*
X180783801Y-89606795D01*
X180778869Y-89613223D01*
X180619516Y-89851711D01*
X180615466Y-89858725D01*
X180488607Y-90115971D01*
X180485505Y-90123461D01*
X180393307Y-90395063D01*
X180391210Y-90402891D01*
X180335253Y-90684206D01*
X180334197Y-90692228D01*
X180315437Y-90978456D01*
X180315437Y-90986543D01*
X171684563Y-90986543D01*
X171684563Y-90978456D01*
X171665802Y-90692228D01*
X171664746Y-90684206D01*
X171608789Y-90402891D01*
X171606692Y-90395063D01*
X171514494Y-90123461D01*
X171511392Y-90115971D01*
X171384533Y-89858725D01*
X171380483Y-89851711D01*
X171221133Y-89613228D01*
X171216194Y-89606791D01*
X171189592Y-89576459D01*
X170400560Y-90365491D01*
X170351652Y-90286501D01*
X170208069Y-90128999D01*
X170049610Y-90009335D01*
X170836039Y-89222906D01*
X170836039Y-89222905D01*
X170805708Y-89196305D01*
X170799271Y-89191366D01*
X170560788Y-89032016D01*
X170553774Y-89027966D01*
X170296528Y-88901107D01*
X170289038Y-88898005D01*
X170017436Y-88805807D01*
X170009608Y-88803710D01*
X169728293Y-88747753D01*
X169720271Y-88746697D01*
X169434043Y-88727937D01*
X169425957Y-88727937D01*
X169139728Y-88746697D01*
X169131706Y-88747753D01*
X168850391Y-88803710D01*
X168842563Y-88805807D01*
X168570961Y-88898005D01*
X168563471Y-88901107D01*
X168306225Y-89027966D01*
X168299211Y-89032016D01*
X168060723Y-89191369D01*
X168054295Y-89196301D01*
X168023958Y-89222905D01*
X168023958Y-89222906D01*
X168810388Y-90009336D01*
X168651931Y-90128999D01*
X168508348Y-90286501D01*
X168459439Y-90365491D01*
X167670406Y-89576458D01*
X167670405Y-89576458D01*
X167643801Y-89606795D01*
X167638869Y-89613223D01*
X167479516Y-89851711D01*
X167475466Y-89858725D01*
X167348607Y-90115971D01*
X167345505Y-90123461D01*
X167253307Y-90395063D01*
X167251210Y-90402891D01*
X167195253Y-90684206D01*
X167194197Y-90692228D01*
X167175437Y-90978456D01*
X167175437Y-90986543D01*
X152000500Y-90986543D01*
X152000500Y-87067764D01*
X160145787Y-87067764D01*
X160175413Y-87337016D01*
X160175414Y-87337018D01*
X160243928Y-87599088D01*
X160341193Y-87827971D01*
X160349871Y-87848392D01*
X160490982Y-88079611D01*
X160660660Y-88283500D01*
X160664255Y-88287820D01*
X160865998Y-88468582D01*
X161091910Y-88618044D01*
X161198211Y-88667876D01*
X161337177Y-88733021D01*
X161596562Y-88811058D01*
X161596569Y-88811060D01*
X161864561Y-88850500D01*
X161864564Y-88850500D01*
X162065369Y-88850500D01*
X162067631Y-88850500D01*
X162270156Y-88835677D01*
X162534553Y-88776780D01*
X162787558Y-88680014D01*
X163023777Y-88547441D01*
X163238177Y-88381888D01*
X163426186Y-88186881D01*
X163583799Y-87966579D01*
X163707656Y-87725675D01*
X163795118Y-87469305D01*
X163844319Y-87202933D01*
X163854212Y-86932235D01*
X163824586Y-86662982D01*
X163756072Y-86400912D01*
X163650130Y-86151610D01*
X163509018Y-85920390D01*
X163509017Y-85920388D01*
X163335746Y-85712181D01*
X163230759Y-85618112D01*
X163134002Y-85531418D01*
X162908090Y-85381956D01*
X162908086Y-85381954D01*
X162662822Y-85266978D01*
X162403437Y-85188941D01*
X162403431Y-85188940D01*
X162135439Y-85149500D01*
X161932369Y-85149500D01*
X161930120Y-85149664D01*
X161930109Y-85149665D01*
X161729843Y-85164322D01*
X161465449Y-85223219D01*
X161212441Y-85319986D01*
X160976223Y-85452559D01*
X160761825Y-85618109D01*
X160573813Y-85813120D01*
X160416201Y-86033420D01*
X160292342Y-86274329D01*
X160204881Y-86530695D01*
X160155680Y-86797066D01*
X160145787Y-87067764D01*
X152000500Y-87067764D01*
X152000500Y-77017500D01*
X153174671Y-77017500D01*
X153193966Y-77311880D01*
X153194757Y-77315861D01*
X153194758Y-77315862D01*
X153250726Y-77597238D01*
X153250728Y-77597245D01*
X153251519Y-77601222D01*
X153252819Y-77605053D01*
X153252823Y-77605066D01*
X153271720Y-77660733D01*
X153346348Y-77880577D01*
X153348141Y-77884213D01*
X153348144Y-77884220D01*
X153475032Y-78141525D01*
X153475038Y-78141536D01*
X153476828Y-78145165D01*
X153479079Y-78148534D01*
X153479082Y-78148539D01*
X153638467Y-78387075D01*
X153640727Y-78390457D01*
X153835242Y-78612258D01*
X154057043Y-78806773D01*
X154302335Y-78970672D01*
X154305968Y-78972463D01*
X154305974Y-78972467D01*
X154494792Y-79065581D01*
X154566923Y-79101152D01*
X154739708Y-79159805D01*
X154842433Y-79194676D01*
X154842435Y-79194676D01*
X154846278Y-79195981D01*
X155135620Y-79253534D01*
X155430000Y-79272829D01*
X155724380Y-79253534D01*
X156013722Y-79195981D01*
X156073644Y-79175639D01*
X156143448Y-79172730D01*
X156203749Y-79208023D01*
X156235396Y-79270314D01*
X156237500Y-79293059D01*
X156237500Y-80211032D01*
X156235973Y-80230430D01*
X156233780Y-80244269D01*
X156237330Y-80311994D01*
X156237500Y-80318483D01*
X156237500Y-80338851D01*
X156237837Y-80342063D01*
X156237838Y-80342072D01*
X156239628Y-80359106D01*
X156240136Y-80365568D01*
X156243686Y-80433304D01*
X156247315Y-80446846D01*
X156250860Y-80465974D01*
X156252325Y-80479913D01*
X156273282Y-80544413D01*
X156275125Y-80550635D01*
X156292679Y-80616146D01*
X156299042Y-80628633D01*
X156306489Y-80646612D01*
X156310820Y-80659942D01*
X156344725Y-80718667D01*
X156347823Y-80724372D01*
X156365662Y-80759383D01*
X156378617Y-80784808D01*
X156387439Y-80795702D01*
X156398458Y-80811735D01*
X156405466Y-80823874D01*
X156450854Y-80874284D01*
X156455067Y-80879216D01*
X156467881Y-80895039D01*
X156470180Y-80897338D01*
X156482274Y-80909432D01*
X156486743Y-80914141D01*
X156529736Y-80961890D01*
X156532129Y-80964547D01*
X156543467Y-80972784D01*
X156558265Y-80985423D01*
X158945469Y-83372627D01*
X158958107Y-83387424D01*
X158966345Y-83398764D01*
X159016750Y-83444148D01*
X159021459Y-83448617D01*
X159035854Y-83463012D01*
X159038376Y-83465054D01*
X159051676Y-83475825D01*
X159056589Y-83480020D01*
X159107018Y-83525426D01*
X159107020Y-83525427D01*
X159107021Y-83525428D01*
X159119150Y-83532430D01*
X159135192Y-83543455D01*
X159146084Y-83552276D01*
X159168579Y-83563737D01*
X159206526Y-83583071D01*
X159212183Y-83586142D01*
X159270950Y-83620072D01*
X159284287Y-83624405D01*
X159302254Y-83631848D01*
X159314746Y-83638213D01*
X159314748Y-83638214D01*
X159380262Y-83655769D01*
X159386485Y-83657612D01*
X159450978Y-83678567D01*
X159464920Y-83680031D01*
X159484050Y-83683578D01*
X159497587Y-83687206D01*
X159503531Y-83687517D01*
X159565329Y-83690755D01*
X159571787Y-83691264D01*
X159592042Y-83693393D01*
X159612408Y-83693393D01*
X159618897Y-83693563D01*
X159686622Y-83697112D01*
X159700462Y-83694919D01*
X159719860Y-83693393D01*
X166596032Y-83693393D01*
X166663071Y-83713078D01*
X166683713Y-83729712D01*
X171201181Y-88247181D01*
X171234666Y-88308504D01*
X171237500Y-88334862D01*
X171237500Y-89079060D01*
X171237500Y-89079078D01*
X171237501Y-89082372D01*
X171237853Y-89085652D01*
X171237854Y-89085659D01*
X171243909Y-89141984D01*
X171262328Y-89191366D01*
X171294204Y-89276831D01*
X171380454Y-89392046D01*
X171495669Y-89478296D01*
X171630517Y-89528591D01*
X171690127Y-89535000D01*
X173309872Y-89534999D01*
X173369483Y-89528591D01*
X173504331Y-89478296D01*
X173619546Y-89392046D01*
X173705796Y-89276831D01*
X173756091Y-89141983D01*
X173762229Y-89084888D01*
X173788965Y-89020340D01*
X173846357Y-88980491D01*
X173916182Y-88977996D01*
X173976272Y-89013648D01*
X173987087Y-89027014D01*
X174029174Y-89087120D01*
X174185380Y-89243326D01*
X174366338Y-89370034D01*
X174566550Y-89463394D01*
X174779932Y-89520570D01*
X175000000Y-89539823D01*
X175220068Y-89520570D01*
X175433450Y-89463394D01*
X175633662Y-89370034D01*
X175814620Y-89243326D01*
X175912322Y-89145623D01*
X175973641Y-89112141D01*
X176043333Y-89117125D01*
X176087676Y-89145622D01*
X176185380Y-89243326D01*
X176366338Y-89370034D01*
X176566550Y-89463394D01*
X176779932Y-89520570D01*
X177000000Y-89539823D01*
X177220068Y-89520570D01*
X177433450Y-89463394D01*
X177633662Y-89370034D01*
X177814620Y-89243326D01*
X177970826Y-89087120D01*
X178097534Y-88906162D01*
X178137894Y-88819608D01*
X178184066Y-88767169D01*
X178251259Y-88748017D01*
X178318140Y-88768232D01*
X178362658Y-88819609D01*
X178402899Y-88905907D01*
X178448258Y-88970687D01*
X179046220Y-88372725D01*
X179046467Y-88376016D01*
X179097128Y-88505098D01*
X179183586Y-88613513D01*
X179298159Y-88691627D01*
X179402301Y-88723750D01*
X178801812Y-89324240D01*
X178866593Y-89369601D01*
X179066718Y-89462920D01*
X179280021Y-89520075D01*
X179500000Y-89539321D01*
X179719978Y-89520075D01*
X179933281Y-89462920D01*
X180133408Y-89369600D01*
X180198187Y-89324240D01*
X179597020Y-88723072D01*
X179637119Y-88717029D01*
X179762054Y-88656863D01*
X179863705Y-88562545D01*
X179933039Y-88442455D01*
X179949850Y-88368796D01*
X180551740Y-88970686D01*
X180597100Y-88905908D01*
X180690420Y-88705781D01*
X180747575Y-88492478D01*
X180766821Y-88272499D01*
X180747575Y-88052521D01*
X180690421Y-87839220D01*
X180597098Y-87639089D01*
X180551740Y-87574311D01*
X179953779Y-88172271D01*
X179953533Y-88168984D01*
X179902872Y-88039902D01*
X179816414Y-87931487D01*
X179701841Y-87853373D01*
X179597697Y-87821249D01*
X180198187Y-87220758D01*
X180133406Y-87175398D01*
X179933281Y-87082079D01*
X179879857Y-87067764D01*
X188145787Y-87067764D01*
X188175413Y-87337016D01*
X188175414Y-87337018D01*
X188243928Y-87599088D01*
X188341193Y-87827971D01*
X188349871Y-87848392D01*
X188490982Y-88079611D01*
X188660660Y-88283500D01*
X188664255Y-88287820D01*
X188865998Y-88468582D01*
X189091910Y-88618044D01*
X189198211Y-88667876D01*
X189337177Y-88733021D01*
X189596562Y-88811058D01*
X189596569Y-88811060D01*
X189864561Y-88850500D01*
X189864564Y-88850500D01*
X190065369Y-88850500D01*
X190067631Y-88850500D01*
X190270156Y-88835677D01*
X190534553Y-88776780D01*
X190787558Y-88680014D01*
X191023777Y-88547441D01*
X191238177Y-88381888D01*
X191426186Y-88186881D01*
X191583799Y-87966579D01*
X191707656Y-87725675D01*
X191795118Y-87469305D01*
X191844319Y-87202933D01*
X191854212Y-86932235D01*
X191824586Y-86662982D01*
X191756072Y-86400912D01*
X191650130Y-86151610D01*
X191509018Y-85920390D01*
X191509017Y-85920388D01*
X191335746Y-85712181D01*
X191230759Y-85618112D01*
X191134002Y-85531418D01*
X190908090Y-85381956D01*
X190908086Y-85381954D01*
X190662822Y-85266978D01*
X190403437Y-85188941D01*
X190403431Y-85188940D01*
X190135439Y-85149500D01*
X189932369Y-85149500D01*
X189930120Y-85149664D01*
X189930109Y-85149665D01*
X189729843Y-85164322D01*
X189465449Y-85223219D01*
X189212441Y-85319986D01*
X188976223Y-85452559D01*
X188761825Y-85618109D01*
X188573813Y-85813120D01*
X188416201Y-86033420D01*
X188292342Y-86274329D01*
X188204881Y-86530695D01*
X188155680Y-86797066D01*
X188145787Y-87067764D01*
X179879857Y-87067764D01*
X179719978Y-87024924D01*
X179500000Y-87005678D01*
X179280021Y-87024924D01*
X179066719Y-87082078D01*
X178866589Y-87175400D01*
X178801812Y-87220758D01*
X178801811Y-87220758D01*
X179402980Y-87821927D01*
X179362881Y-87827971D01*
X179237946Y-87888137D01*
X179136295Y-87982455D01*
X179066961Y-88102545D01*
X179050149Y-88176202D01*
X178448258Y-87574311D01*
X178448258Y-87574312D01*
X178402901Y-87639088D01*
X178362657Y-87725392D01*
X178316484Y-87777831D01*
X178249290Y-87796982D01*
X178182409Y-87776766D01*
X178137893Y-87725390D01*
X178097534Y-87638839D01*
X178069700Y-87599088D01*
X177970826Y-87457880D01*
X177814620Y-87301674D01*
X177633662Y-87174966D01*
X177433451Y-87081606D01*
X177220065Y-87024429D01*
X177051728Y-87009702D01*
X176986659Y-86984250D01*
X176974854Y-86973855D01*
X173535722Y-83534723D01*
X173502237Y-83473400D01*
X173507221Y-83403708D01*
X173549093Y-83347775D01*
X173614557Y-83323358D01*
X173655496Y-83327266D01*
X173684592Y-83335063D01*
X173920000Y-83355659D01*
X174155408Y-83335063D01*
X174383663Y-83273903D01*
X174597830Y-83174035D01*
X174791401Y-83038495D01*
X174958495Y-82871401D01*
X175088732Y-82685403D01*
X175143307Y-82641780D01*
X175212805Y-82634586D01*
X175275160Y-82666109D01*
X175291880Y-82685404D01*
X175421893Y-82871081D01*
X175588918Y-83038106D01*
X175782423Y-83173600D01*
X175996509Y-83273430D01*
X176210000Y-83330634D01*
X176210000Y-82435501D01*
X176317685Y-82484680D01*
X176424237Y-82500000D01*
X176495763Y-82500000D01*
X176602315Y-82484680D01*
X176710000Y-82435501D01*
X176710000Y-83330633D01*
X176923490Y-83273430D01*
X177137576Y-83173600D01*
X177331077Y-83038109D01*
X177453133Y-82916053D01*
X177514456Y-82882568D01*
X177584148Y-82887552D01*
X177640082Y-82929423D01*
X177656996Y-82960399D01*
X177706204Y-83092331D01*
X177792454Y-83207546D01*
X177907669Y-83293796D01*
X178042517Y-83344091D01*
X178102127Y-83350500D01*
X179897872Y-83350499D01*
X179957483Y-83344091D01*
X180092331Y-83293796D01*
X180207546Y-83207546D01*
X180293796Y-83092331D01*
X180344091Y-82957483D01*
X180350500Y-82897873D01*
X180350499Y-81102128D01*
X180344091Y-81042517D01*
X180293796Y-80907669D01*
X180207546Y-80792454D01*
X180092331Y-80706204D01*
X179957483Y-80655909D01*
X179955734Y-80655721D01*
X179901166Y-80649854D01*
X179901165Y-80649853D01*
X179897873Y-80649500D01*
X179894550Y-80649500D01*
X178105439Y-80649500D01*
X178105420Y-80649500D01*
X178102128Y-80649501D01*
X178098848Y-80649853D01*
X178098840Y-80649854D01*
X178042515Y-80655909D01*
X177907669Y-80706204D01*
X177792454Y-80792454D01*
X177706204Y-80907669D01*
X177656997Y-81039599D01*
X177615125Y-81095532D01*
X177549661Y-81119949D01*
X177481388Y-81105097D01*
X177453134Y-81083946D01*
X177331081Y-80961893D01*
X177137576Y-80826399D01*
X176923492Y-80726569D01*
X176710000Y-80669364D01*
X176710000Y-81564498D01*
X176602315Y-81515320D01*
X176495763Y-81500000D01*
X176424237Y-81500000D01*
X176317685Y-81515320D01*
X176210000Y-81564498D01*
X176210000Y-80669364D01*
X176209999Y-80669364D01*
X175996507Y-80726569D01*
X175782421Y-80826400D01*
X175588921Y-80961890D01*
X175421893Y-81128918D01*
X175291880Y-81314596D01*
X175237303Y-81358220D01*
X175167804Y-81365413D01*
X175105450Y-81333891D01*
X175088730Y-81314595D01*
X174958494Y-81128598D01*
X174834009Y-81004113D01*
X174800524Y-80942790D01*
X174805508Y-80873098D01*
X174847380Y-80817165D01*
X174859672Y-80809056D01*
X174887048Y-80793250D01*
X174892677Y-80790193D01*
X174953149Y-80759383D01*
X174964042Y-80750560D01*
X174980074Y-80739542D01*
X174992216Y-80732533D01*
X175042638Y-80687131D01*
X175047540Y-80682945D01*
X175063380Y-80670119D01*
X175077779Y-80655718D01*
X175082471Y-80651265D01*
X175132888Y-80605871D01*
X175141129Y-80594526D01*
X175153760Y-80579737D01*
X176343564Y-79389933D01*
X176404885Y-79356450D01*
X176442048Y-79354088D01*
X176460000Y-79355659D01*
X176460002Y-79355658D01*
X176460004Y-79355659D01*
X176648326Y-79339182D01*
X176695408Y-79335063D01*
X176923663Y-79273903D01*
X177137830Y-79174035D01*
X177331401Y-79038495D01*
X177453329Y-78916566D01*
X177514648Y-78883084D01*
X177584340Y-78888068D01*
X177640274Y-78929939D01*
X177657189Y-78960916D01*
X177678583Y-79018276D01*
X177706204Y-79092331D01*
X177792454Y-79207546D01*
X177907669Y-79293796D01*
X178042517Y-79344091D01*
X178102127Y-79350500D01*
X179897872Y-79350499D01*
X179957483Y-79344091D01*
X180092331Y-79293796D01*
X180207546Y-79207546D01*
X180293796Y-79092331D01*
X180344091Y-78957483D01*
X180350500Y-78897873D01*
X180350499Y-77102128D01*
X180344091Y-77042517D01*
X180334760Y-77017500D01*
X182174671Y-77017500D01*
X182193966Y-77311880D01*
X182194757Y-77315861D01*
X182194758Y-77315862D01*
X182250726Y-77597238D01*
X182250728Y-77597245D01*
X182251519Y-77601222D01*
X182252819Y-77605053D01*
X182252823Y-77605066D01*
X182271720Y-77660733D01*
X182346348Y-77880577D01*
X182348141Y-77884213D01*
X182348144Y-77884220D01*
X182475032Y-78141525D01*
X182475038Y-78141536D01*
X182476828Y-78145165D01*
X182479079Y-78148534D01*
X182479082Y-78148539D01*
X182638467Y-78387075D01*
X182640727Y-78390457D01*
X182835242Y-78612258D01*
X183057043Y-78806773D01*
X183302335Y-78970672D01*
X183305968Y-78972463D01*
X183305974Y-78972467D01*
X183494792Y-79065581D01*
X183566923Y-79101152D01*
X183739708Y-79159805D01*
X183842433Y-79194676D01*
X183842435Y-79194676D01*
X183846278Y-79195981D01*
X184135620Y-79253534D01*
X184430000Y-79272829D01*
X184724380Y-79253534D01*
X185013722Y-79195981D01*
X185293077Y-79101152D01*
X185557665Y-78970672D01*
X185802957Y-78806773D01*
X186024758Y-78612258D01*
X186219273Y-78390457D01*
X186383172Y-78145165D01*
X186513652Y-77880577D01*
X186608481Y-77601222D01*
X186666034Y-77311880D01*
X186685329Y-77017500D01*
X186666034Y-76723120D01*
X186608481Y-76433778D01*
X186596900Y-76399663D01*
X186557816Y-76284525D01*
X186513652Y-76154423D01*
X186383172Y-75889836D01*
X186348119Y-75837376D01*
X186287807Y-75747112D01*
X186219273Y-75644543D01*
X186024758Y-75422742D01*
X185802957Y-75228227D01*
X185772006Y-75207546D01*
X185561039Y-75066582D01*
X185561034Y-75066579D01*
X185557665Y-75064328D01*
X185554036Y-75062538D01*
X185554025Y-75062532D01*
X185296720Y-74935644D01*
X185296713Y-74935641D01*
X185293077Y-74933848D01*
X185281562Y-74929939D01*
X185017566Y-74840323D01*
X185017553Y-74840319D01*
X185013722Y-74839019D01*
X185009745Y-74838228D01*
X185009738Y-74838226D01*
X184728362Y-74782258D01*
X184728361Y-74782257D01*
X184724380Y-74781466D01*
X184720330Y-74781200D01*
X184720326Y-74781200D01*
X184434058Y-74762437D01*
X184430000Y-74762171D01*
X184425942Y-74762437D01*
X184139673Y-74781200D01*
X184139667Y-74781200D01*
X184135620Y-74781466D01*
X184131640Y-74782257D01*
X184131637Y-74782258D01*
X183850261Y-74838226D01*
X183850250Y-74838228D01*
X183846278Y-74839019D01*
X183842449Y-74840318D01*
X183842433Y-74840323D01*
X183570769Y-74932542D01*
X183570762Y-74932544D01*
X183566923Y-74933848D01*
X183563286Y-74935641D01*
X183563280Y-74935644D01*
X183305976Y-75062532D01*
X183305964Y-75062538D01*
X183302336Y-75064328D01*
X183298973Y-75066575D01*
X183298961Y-75066582D01*
X183060424Y-75225967D01*
X183060414Y-75225973D01*
X183057043Y-75228227D01*
X183053992Y-75230902D01*
X183053985Y-75230908D01*
X182838290Y-75420068D01*
X182838282Y-75420075D01*
X182835242Y-75422742D01*
X182832575Y-75425782D01*
X182832568Y-75425790D01*
X182643408Y-75641485D01*
X182643402Y-75641492D01*
X182640727Y-75644543D01*
X182638473Y-75647914D01*
X182638467Y-75647924D01*
X182479082Y-75886461D01*
X182479075Y-75886473D01*
X182476828Y-75889836D01*
X182475038Y-75893464D01*
X182475032Y-75893476D01*
X182348144Y-76150780D01*
X182348141Y-76150786D01*
X182346348Y-76154423D01*
X182345044Y-76158262D01*
X182345042Y-76158269D01*
X182252823Y-76429933D01*
X182252818Y-76429949D01*
X182251519Y-76433778D01*
X182250728Y-76437750D01*
X182250726Y-76437761D01*
X182196513Y-76710313D01*
X182193966Y-76723120D01*
X182193700Y-76727167D01*
X182193700Y-76727173D01*
X182178341Y-76961505D01*
X182174671Y-77017500D01*
X180334760Y-77017500D01*
X180293796Y-76907669D01*
X180207546Y-76792454D01*
X180092331Y-76706204D01*
X179957483Y-76655909D01*
X179897873Y-76649500D01*
X179894550Y-76649500D01*
X178105439Y-76649500D01*
X178105420Y-76649500D01*
X178102128Y-76649501D01*
X178098848Y-76649853D01*
X178098840Y-76649854D01*
X178042515Y-76655909D01*
X177907669Y-76706204D01*
X177792454Y-76792454D01*
X177706204Y-76907669D01*
X177657189Y-77039083D01*
X177615317Y-77095016D01*
X177549852Y-77119433D01*
X177481580Y-77104581D01*
X177453326Y-77083430D01*
X177331404Y-76961508D01*
X177331404Y-76961507D01*
X177331401Y-76961505D01*
X177137830Y-76825965D01*
X176923663Y-76726097D01*
X176862502Y-76709709D01*
X176695407Y-76664936D01*
X176460000Y-76644340D01*
X176224592Y-76664936D01*
X175996336Y-76726097D01*
X175782170Y-76825965D01*
X175588598Y-76961505D01*
X175421505Y-77128598D01*
X175291575Y-77314159D01*
X175236998Y-77357784D01*
X175167500Y-77364978D01*
X175105145Y-77333455D01*
X175088425Y-77314159D01*
X174958494Y-77128598D01*
X174791404Y-76961508D01*
X174791404Y-76961507D01*
X174791401Y-76961505D01*
X174597830Y-76825965D01*
X174383663Y-76726097D01*
X174322502Y-76709709D01*
X174155407Y-76664936D01*
X173917462Y-76644118D01*
X173852394Y-76618665D01*
X173811415Y-76562074D01*
X173807537Y-76492312D01*
X173840589Y-76432909D01*
X173886680Y-76386818D01*
X173948004Y-76353334D01*
X173974361Y-76350500D01*
X174929374Y-76350500D01*
X174948771Y-76352026D01*
X174962612Y-76354219D01*
X175030336Y-76350670D01*
X175036826Y-76350500D01*
X175053952Y-76350500D01*
X175057192Y-76350500D01*
X175060413Y-76350161D01*
X175060421Y-76350161D01*
X175077447Y-76348371D01*
X175083906Y-76347862D01*
X175151646Y-76344313D01*
X175165193Y-76340682D01*
X175184309Y-76337139D01*
X175198256Y-76335674D01*
X175262786Y-76314706D01*
X175268951Y-76312880D01*
X175334488Y-76295320D01*
X175346974Y-76288956D01*
X175364953Y-76281509D01*
X175378284Y-76277179D01*
X175437051Y-76243248D01*
X175442677Y-76240193D01*
X175503149Y-76209383D01*
X175514042Y-76200560D01*
X175530074Y-76189542D01*
X175542216Y-76182533D01*
X175592638Y-76137131D01*
X175597540Y-76132945D01*
X175613380Y-76120119D01*
X175627779Y-76105718D01*
X175632471Y-76101265D01*
X175682888Y-76055871D01*
X175691129Y-76044526D01*
X175703760Y-76029737D01*
X176343566Y-75389932D01*
X176404885Y-75356450D01*
X176442048Y-75354088D01*
X176460000Y-75355659D01*
X176460002Y-75355658D01*
X176460004Y-75355659D01*
X176648326Y-75339182D01*
X176695408Y-75335063D01*
X176923663Y-75273903D01*
X177137830Y-75174035D01*
X177331401Y-75038495D01*
X177453329Y-74916566D01*
X177514648Y-74883084D01*
X177584340Y-74888068D01*
X177640274Y-74929939D01*
X177657189Y-74960916D01*
X177706204Y-75092331D01*
X177792454Y-75207546D01*
X177907669Y-75293796D01*
X178042517Y-75344091D01*
X178102127Y-75350500D01*
X179897872Y-75350499D01*
X179957483Y-75344091D01*
X180092331Y-75293796D01*
X180207546Y-75207546D01*
X180293796Y-75092331D01*
X180344091Y-74957483D01*
X180350500Y-74897873D01*
X180350499Y-73102128D01*
X180344091Y-73042517D01*
X180293796Y-72907669D01*
X180207546Y-72792454D01*
X180092331Y-72706204D01*
X179957483Y-72655909D01*
X179897873Y-72649500D01*
X179894550Y-72649500D01*
X178105439Y-72649500D01*
X178105420Y-72649500D01*
X178102128Y-72649501D01*
X178098848Y-72649853D01*
X178098840Y-72649854D01*
X178042515Y-72655909D01*
X177907669Y-72706204D01*
X177792454Y-72792454D01*
X177706204Y-72907669D01*
X177657189Y-73039083D01*
X177615317Y-73095016D01*
X177549852Y-73119433D01*
X177481580Y-73104581D01*
X177453326Y-73083430D01*
X177331404Y-72961508D01*
X177331404Y-72961507D01*
X177331401Y-72961505D01*
X177137830Y-72825965D01*
X176923663Y-72726097D01*
X176862502Y-72709709D01*
X176695407Y-72664936D01*
X176460000Y-72644340D01*
X176224592Y-72664936D01*
X175996336Y-72726097D01*
X175782170Y-72825965D01*
X175588598Y-72961505D01*
X175421505Y-73128598D01*
X175291575Y-73314159D01*
X175236998Y-73357784D01*
X175167500Y-73364978D01*
X175105145Y-73333455D01*
X175088425Y-73314159D01*
X174958494Y-73128598D01*
X174791404Y-72961508D01*
X174791404Y-72961507D01*
X174791401Y-72961505D01*
X174597830Y-72825965D01*
X174383663Y-72726097D01*
X174322502Y-72709709D01*
X174155407Y-72664936D01*
X173919999Y-72644340D01*
X173684592Y-72664936D01*
X173456336Y-72726097D01*
X173242170Y-72825965D01*
X173048598Y-72961505D01*
X172881505Y-73128598D01*
X172745965Y-73322170D01*
X172646097Y-73536336D01*
X172584936Y-73764592D01*
X172564340Y-73999999D01*
X172584936Y-74235407D01*
X172646097Y-74463662D01*
X172745965Y-74677831D01*
X172810950Y-74770639D01*
X172833277Y-74836845D01*
X172816267Y-74904612D01*
X172797056Y-74929443D01*
X171002815Y-76723684D01*
X170941492Y-76757169D01*
X170871800Y-76752185D01*
X170815867Y-76710313D01*
X170793517Y-76660194D01*
X170791460Y-76649854D01*
X170748481Y-76433778D01*
X170736900Y-76399663D01*
X170697816Y-76284525D01*
X170653652Y-76154423D01*
X170523172Y-75889836D01*
X170488119Y-75837376D01*
X170427807Y-75747112D01*
X170359273Y-75644543D01*
X170164758Y-75422742D01*
X169942957Y-75228227D01*
X169912006Y-75207546D01*
X169701039Y-75066582D01*
X169701034Y-75066579D01*
X169697665Y-75064328D01*
X169694036Y-75062538D01*
X169694025Y-75062532D01*
X169436720Y-74935644D01*
X169436713Y-74935641D01*
X169433077Y-74933848D01*
X169421562Y-74929939D01*
X169157566Y-74840323D01*
X169157553Y-74840319D01*
X169153722Y-74839019D01*
X169149745Y-74838228D01*
X169149738Y-74838226D01*
X168868362Y-74782258D01*
X168868361Y-74782257D01*
X168864380Y-74781466D01*
X168860330Y-74781200D01*
X168860326Y-74781200D01*
X168712943Y-74771540D01*
X168647334Y-74747513D01*
X168605131Y-74691830D01*
X168599732Y-74622169D01*
X168632852Y-74560648D01*
X168633185Y-74560312D01*
X171130119Y-72063380D01*
X171188678Y-72004821D01*
X171188690Y-72004807D01*
X172256680Y-70936819D01*
X172318004Y-70903334D01*
X172344362Y-70900500D01*
X172859242Y-70900500D01*
X172926281Y-70920185D01*
X172946923Y-70936818D01*
X173048599Y-71038495D01*
X173242170Y-71174035D01*
X173456337Y-71273903D01*
X173684592Y-71335063D01*
X173920000Y-71355659D01*
X174155408Y-71335063D01*
X174383663Y-71273903D01*
X174597830Y-71174035D01*
X174791401Y-71038495D01*
X174958495Y-70871401D01*
X175088426Y-70685839D01*
X175143002Y-70642216D01*
X175212500Y-70635022D01*
X175274855Y-70666545D01*
X175291571Y-70685837D01*
X175421505Y-70871401D01*
X175588599Y-71038495D01*
X175782170Y-71174035D01*
X175996337Y-71273903D01*
X176224591Y-71335062D01*
X176224592Y-71335063D01*
X176459999Y-71355659D01*
X176459999Y-71355658D01*
X176460000Y-71355659D01*
X176695408Y-71335063D01*
X176923663Y-71273903D01*
X177137830Y-71174035D01*
X177331401Y-71038495D01*
X177453329Y-70916566D01*
X177514648Y-70883084D01*
X177584340Y-70888068D01*
X177640274Y-70929939D01*
X177657189Y-70960916D01*
X177683291Y-71030898D01*
X177706204Y-71092331D01*
X177792454Y-71207546D01*
X177907669Y-71293796D01*
X178042517Y-71344091D01*
X178102127Y-71350500D01*
X179897872Y-71350499D01*
X179957483Y-71344091D01*
X180092331Y-71293796D01*
X180207546Y-71207546D01*
X180293796Y-71092331D01*
X180335257Y-70981165D01*
X180377128Y-70925233D01*
X180442592Y-70900816D01*
X180451439Y-70900500D01*
X184348139Y-70900500D01*
X184415178Y-70920185D01*
X184435820Y-70936819D01*
X191784614Y-78285613D01*
X191818099Y-78346936D01*
X191813115Y-78416628D01*
X191771243Y-78472561D01*
X191729028Y-78493069D01*
X191598645Y-78528005D01*
X191566550Y-78536606D01*
X191566549Y-78536606D01*
X191566547Y-78536607D01*
X191366338Y-78629966D01*
X191185379Y-78756674D01*
X191087681Y-78854373D01*
X191026358Y-78887858D01*
X190956666Y-78882874D01*
X190912319Y-78854373D01*
X190814620Y-78756674D01*
X190633662Y-78629966D01*
X190433451Y-78536606D01*
X190220065Y-78479429D01*
X189999999Y-78460176D01*
X189779934Y-78479429D01*
X189566548Y-78536606D01*
X189366338Y-78629966D01*
X189185379Y-78756674D01*
X189029174Y-78912879D01*
X188902466Y-79093838D01*
X188862382Y-79179799D01*
X188816209Y-79232238D01*
X188749016Y-79251390D01*
X188682135Y-79231174D01*
X188637618Y-79179799D01*
X188628294Y-79159805D01*
X188597534Y-79093839D01*
X188470826Y-78912880D01*
X188314620Y-78756674D01*
X188133662Y-78629966D01*
X188095687Y-78612258D01*
X187933451Y-78536606D01*
X187720065Y-78479429D01*
X187500000Y-78460176D01*
X187279934Y-78479429D01*
X187066548Y-78536606D01*
X186866338Y-78629966D01*
X186685379Y-78756674D01*
X186529174Y-78912879D01*
X186402466Y-79093838D01*
X186309106Y-79294048D01*
X186251929Y-79507434D01*
X186232676Y-79727500D01*
X186251929Y-79947565D01*
X186309106Y-80160951D01*
X186390549Y-80335606D01*
X186402466Y-80361162D01*
X186529174Y-80542120D01*
X186685380Y-80698326D01*
X186866338Y-80825034D01*
X187066550Y-80918394D01*
X187279932Y-80975570D01*
X187500000Y-80994823D01*
X187720068Y-80975570D01*
X187933450Y-80918394D01*
X188133662Y-80825034D01*
X188314620Y-80698326D01*
X188470826Y-80542120D01*
X188597534Y-80361162D01*
X188637618Y-80275200D01*
X188683790Y-80222762D01*
X188750984Y-80203610D01*
X188817865Y-80223826D01*
X188862381Y-80275200D01*
X188902466Y-80361162D01*
X189029174Y-80542120D01*
X189185380Y-80698326D01*
X189366338Y-80825034D01*
X189566550Y-80918394D01*
X189779932Y-80975570D01*
X190000000Y-80994823D01*
X190220068Y-80975570D01*
X190433450Y-80918394D01*
X190633662Y-80825034D01*
X190814620Y-80698326D01*
X190912319Y-80600626D01*
X190973642Y-80567142D01*
X191043334Y-80572126D01*
X191087681Y-80600627D01*
X191185380Y-80698326D01*
X191366338Y-80825034D01*
X191566550Y-80918394D01*
X191779932Y-80975570D01*
X192000000Y-80994823D01*
X192220068Y-80975570D01*
X192433450Y-80918394D01*
X192633662Y-80825034D01*
X192814620Y-80698326D01*
X192970826Y-80542120D01*
X193012909Y-80482018D01*
X193067481Y-80438396D01*
X193136980Y-80431202D01*
X193199335Y-80462724D01*
X193234749Y-80522953D01*
X193237771Y-80539889D01*
X193243909Y-80596984D01*
X193263497Y-80649501D01*
X193294204Y-80731831D01*
X193380454Y-80847046D01*
X193495669Y-80933296D01*
X193630517Y-80983591D01*
X193690127Y-80990000D01*
X195309872Y-80989999D01*
X195369483Y-80983591D01*
X195504331Y-80933296D01*
X195619546Y-80847046D01*
X195705796Y-80731831D01*
X195756091Y-80596983D01*
X195762500Y-80537373D01*
X195762499Y-78917628D01*
X195756091Y-78858017D01*
X195705796Y-78723169D01*
X195619546Y-78607954D01*
X195504331Y-78521704D01*
X195369483Y-78471409D01*
X195309873Y-78465000D01*
X195306551Y-78465000D01*
X194562361Y-78465000D01*
X194495322Y-78445315D01*
X194474680Y-78428681D01*
X193063499Y-77017500D01*
X195314671Y-77017500D01*
X195333966Y-77311880D01*
X195334757Y-77315861D01*
X195334758Y-77315862D01*
X195390726Y-77597238D01*
X195390728Y-77597245D01*
X195391519Y-77601222D01*
X195392819Y-77605053D01*
X195392823Y-77605066D01*
X195411720Y-77660733D01*
X195486348Y-77880577D01*
X195488141Y-77884213D01*
X195488144Y-77884220D01*
X195615032Y-78141525D01*
X195615038Y-78141536D01*
X195616828Y-78145165D01*
X195619079Y-78148534D01*
X195619082Y-78148539D01*
X195778467Y-78387075D01*
X195780727Y-78390457D01*
X195975242Y-78612258D01*
X196197043Y-78806773D01*
X196442335Y-78970672D01*
X196445968Y-78972463D01*
X196445974Y-78972467D01*
X196634792Y-79065581D01*
X196706923Y-79101152D01*
X196879708Y-79159805D01*
X196982433Y-79194676D01*
X196982435Y-79194676D01*
X196986278Y-79195981D01*
X197275620Y-79253534D01*
X197570000Y-79272829D01*
X197864380Y-79253534D01*
X198153722Y-79195981D01*
X198433077Y-79101152D01*
X198697665Y-78970672D01*
X198942957Y-78806773D01*
X199164758Y-78612258D01*
X199359273Y-78390457D01*
X199523172Y-78145165D01*
X199653652Y-77880577D01*
X199748481Y-77601222D01*
X199806034Y-77311880D01*
X199825329Y-77017500D01*
X199806034Y-76723120D01*
X199748481Y-76433778D01*
X199736900Y-76399663D01*
X199697816Y-76284525D01*
X199653652Y-76154423D01*
X199523172Y-75889836D01*
X199488119Y-75837376D01*
X199427807Y-75747112D01*
X199359273Y-75644543D01*
X199164758Y-75422742D01*
X198942957Y-75228227D01*
X198912006Y-75207546D01*
X198701039Y-75066582D01*
X198701034Y-75066579D01*
X198697665Y-75064328D01*
X198694036Y-75062538D01*
X198694025Y-75062532D01*
X198436720Y-74935644D01*
X198436713Y-74935641D01*
X198433077Y-74933848D01*
X198421562Y-74929939D01*
X198157566Y-74840323D01*
X198157553Y-74840319D01*
X198153722Y-74839019D01*
X198149745Y-74838228D01*
X198149738Y-74838226D01*
X197868362Y-74782258D01*
X197868361Y-74782257D01*
X197864380Y-74781466D01*
X197860330Y-74781200D01*
X197860326Y-74781200D01*
X197574058Y-74762437D01*
X197570000Y-74762171D01*
X197565942Y-74762437D01*
X197279673Y-74781200D01*
X197279667Y-74781200D01*
X197275620Y-74781466D01*
X197271640Y-74782257D01*
X197271637Y-74782258D01*
X196990261Y-74838226D01*
X196990250Y-74838228D01*
X196986278Y-74839019D01*
X196982449Y-74840318D01*
X196982433Y-74840323D01*
X196710769Y-74932542D01*
X196710762Y-74932544D01*
X196706923Y-74933848D01*
X196703286Y-74935641D01*
X196703280Y-74935644D01*
X196445976Y-75062532D01*
X196445964Y-75062538D01*
X196442336Y-75064328D01*
X196438973Y-75066575D01*
X196438961Y-75066582D01*
X196200424Y-75225967D01*
X196200414Y-75225973D01*
X196197043Y-75228227D01*
X196193992Y-75230902D01*
X196193985Y-75230908D01*
X195978290Y-75420068D01*
X195978282Y-75420075D01*
X195975242Y-75422742D01*
X195972575Y-75425782D01*
X195972568Y-75425790D01*
X195783408Y-75641485D01*
X195783402Y-75641492D01*
X195780727Y-75644543D01*
X195778473Y-75647914D01*
X195778467Y-75647924D01*
X195619082Y-75886461D01*
X195619075Y-75886473D01*
X195616828Y-75889836D01*
X195615038Y-75893464D01*
X195615032Y-75893476D01*
X195488144Y-76150780D01*
X195488141Y-76150786D01*
X195486348Y-76154423D01*
X195485044Y-76158262D01*
X195485042Y-76158269D01*
X195392823Y-76429933D01*
X195392818Y-76429949D01*
X195391519Y-76433778D01*
X195390728Y-76437750D01*
X195390726Y-76437761D01*
X195336513Y-76710313D01*
X195333966Y-76723120D01*
X195333700Y-76727167D01*
X195333700Y-76727173D01*
X195318341Y-76961505D01*
X195314671Y-77017500D01*
X193063499Y-77017500D01*
X185466264Y-69420265D01*
X185453625Y-69405467D01*
X185445390Y-69394132D01*
X185445388Y-69394129D01*
X185394982Y-69348743D01*
X185390273Y-69344274D01*
X185378179Y-69332180D01*
X185378176Y-69332177D01*
X185375880Y-69329881D01*
X185373363Y-69327843D01*
X185373359Y-69327839D01*
X185360057Y-69317067D01*
X185355125Y-69312854D01*
X185304715Y-69267466D01*
X185292576Y-69260458D01*
X185276543Y-69249439D01*
X185265649Y-69240617D01*
X185265647Y-69240616D01*
X185265646Y-69240615D01*
X185205213Y-69209823D01*
X185199508Y-69206725D01*
X185140783Y-69172820D01*
X185127453Y-69168489D01*
X185109474Y-69161042D01*
X185096987Y-69154679D01*
X185031476Y-69137125D01*
X185025254Y-69135282D01*
X184960754Y-69114325D01*
X184946815Y-69112860D01*
X184927687Y-69109315D01*
X184914145Y-69105686D01*
X184846409Y-69102136D01*
X184839947Y-69101628D01*
X184822913Y-69099838D01*
X184822904Y-69099837D01*
X184819692Y-69099500D01*
X184816447Y-69099500D01*
X184799326Y-69099500D01*
X184792837Y-69099330D01*
X184787875Y-69099069D01*
X184725112Y-69095781D01*
X184725111Y-69095781D01*
X184717576Y-69096974D01*
X184711271Y-69097973D01*
X184691874Y-69099500D01*
X180451439Y-69099500D01*
X180384400Y-69079815D01*
X180338645Y-69027011D01*
X180335257Y-69018833D01*
X180293796Y-68907669D01*
X180207546Y-68792454D01*
X180092331Y-68706204D01*
X179957483Y-68655909D01*
X179957483Y-68655908D01*
X179901166Y-68649854D01*
X179901165Y-68649853D01*
X179897873Y-68649500D01*
X179894550Y-68649500D01*
X178105439Y-68649500D01*
X178105420Y-68649500D01*
X178102128Y-68649501D01*
X178098848Y-68649853D01*
X178098840Y-68649854D01*
X178042515Y-68655909D01*
X177907669Y-68706204D01*
X177792454Y-68792454D01*
X177706204Y-68907669D01*
X177657189Y-69039083D01*
X177615317Y-69095016D01*
X177549852Y-69119433D01*
X177481580Y-69104581D01*
X177453326Y-69083430D01*
X177331404Y-68961508D01*
X177331404Y-68961507D01*
X177331401Y-68961505D01*
X177137830Y-68825965D01*
X176923663Y-68726097D01*
X176862501Y-68709709D01*
X176695407Y-68664936D01*
X176460001Y-68644340D01*
X176442046Y-68645911D01*
X176373547Y-68632141D01*
X176343562Y-68610063D01*
X175153764Y-67420265D01*
X175141125Y-67405467D01*
X175132890Y-67394132D01*
X175132888Y-67394129D01*
X175082482Y-67348743D01*
X175077773Y-67344274D01*
X175065679Y-67332180D01*
X175065676Y-67332177D01*
X175063380Y-67329881D01*
X175060863Y-67327843D01*
X175060859Y-67327839D01*
X175047557Y-67317067D01*
X175042625Y-67312854D01*
X174992215Y-67267466D01*
X174980076Y-67260458D01*
X174964043Y-67249439D01*
X174953149Y-67240617D01*
X174953147Y-67240616D01*
X174953146Y-67240615D01*
X174892713Y-67209823D01*
X174887008Y-67206725D01*
X174828283Y-67172820D01*
X174814953Y-67168489D01*
X174796974Y-67161042D01*
X174784487Y-67154679D01*
X174718976Y-67137125D01*
X174712754Y-67135282D01*
X174648254Y-67114325D01*
X174634315Y-67112860D01*
X174615187Y-67109315D01*
X174601645Y-67105686D01*
X174533909Y-67102136D01*
X174527447Y-67101628D01*
X174510413Y-67099838D01*
X174510404Y-67099837D01*
X174507192Y-67099500D01*
X174503947Y-67099500D01*
X174486826Y-67099500D01*
X174480337Y-67099330D01*
X174475375Y-67099069D01*
X174412612Y-67095781D01*
X174412611Y-67095781D01*
X174405076Y-67096974D01*
X174398771Y-67097973D01*
X174379374Y-67099500D01*
X168080626Y-67099500D01*
X168061228Y-67097973D01*
X168047388Y-67095781D01*
X167979664Y-67099330D01*
X167973175Y-67099500D01*
X167952808Y-67099500D01*
X167949595Y-67099837D01*
X167949587Y-67099838D01*
X167932553Y-67101628D01*
X167926091Y-67102136D01*
X167858352Y-67105687D01*
X167844805Y-67109316D01*
X167825689Y-67112859D01*
X167811743Y-67114325D01*
X167747241Y-67135283D01*
X167741020Y-67137126D01*
X167675510Y-67154680D01*
X167663016Y-67161046D01*
X167645056Y-67168485D01*
X167631718Y-67172819D01*
X167572996Y-67206722D01*
X167567295Y-67209818D01*
X167506847Y-67240618D01*
X167495952Y-67249441D01*
X167479929Y-67260454D01*
X167467785Y-67267466D01*
X167417397Y-67312835D01*
X167412465Y-67317048D01*
X167399134Y-67327843D01*
X167399121Y-67327854D01*
X167396620Y-67329880D01*
X167394339Y-67332160D01*
X167394321Y-67332177D01*
X167382199Y-67344298D01*
X167377498Y-67348760D01*
X167327108Y-67394132D01*
X167318872Y-67405468D01*
X167306238Y-67420260D01*
X157880300Y-76846199D01*
X157818977Y-76879684D01*
X157749285Y-76874700D01*
X157693352Y-76832828D01*
X157668935Y-76767364D01*
X157668914Y-76767069D01*
X157666034Y-76723120D01*
X157608481Y-76433778D01*
X157596900Y-76399663D01*
X157557816Y-76284525D01*
X157513652Y-76154423D01*
X157383172Y-75889836D01*
X157348119Y-75837376D01*
X157287807Y-75747112D01*
X157219273Y-75644543D01*
X157024758Y-75422742D01*
X156802957Y-75228227D01*
X156772006Y-75207546D01*
X156561039Y-75066582D01*
X156561034Y-75066579D01*
X156557665Y-75064328D01*
X156554036Y-75062538D01*
X156554025Y-75062532D01*
X156296720Y-74935644D01*
X156296713Y-74935641D01*
X156293077Y-74933848D01*
X156281562Y-74929939D01*
X156017566Y-74840323D01*
X156017553Y-74840319D01*
X156013722Y-74839019D01*
X156009745Y-74838228D01*
X156009738Y-74838226D01*
X155728362Y-74782258D01*
X155728361Y-74782257D01*
X155724380Y-74781466D01*
X155720330Y-74781200D01*
X155720326Y-74781200D01*
X155434058Y-74762437D01*
X155430000Y-74762171D01*
X155425942Y-74762437D01*
X155139673Y-74781200D01*
X155139667Y-74781200D01*
X155135620Y-74781466D01*
X155131640Y-74782257D01*
X155131637Y-74782258D01*
X154850261Y-74838226D01*
X154850250Y-74838228D01*
X154846278Y-74839019D01*
X154842449Y-74840318D01*
X154842433Y-74840323D01*
X154570769Y-74932542D01*
X154570762Y-74932544D01*
X154566923Y-74933848D01*
X154563286Y-74935641D01*
X154563280Y-74935644D01*
X154305976Y-75062532D01*
X154305964Y-75062538D01*
X154302336Y-75064328D01*
X154298973Y-75066575D01*
X154298961Y-75066582D01*
X154060424Y-75225967D01*
X154060414Y-75225973D01*
X154057043Y-75228227D01*
X154053992Y-75230902D01*
X154053985Y-75230908D01*
X153838290Y-75420068D01*
X153838282Y-75420075D01*
X153835242Y-75422742D01*
X153832575Y-75425782D01*
X153832568Y-75425790D01*
X153643408Y-75641485D01*
X153643402Y-75641492D01*
X153640727Y-75644543D01*
X153638473Y-75647914D01*
X153638467Y-75647924D01*
X153479082Y-75886461D01*
X153479075Y-75886473D01*
X153476828Y-75889836D01*
X153475038Y-75893464D01*
X153475032Y-75893476D01*
X153348144Y-76150780D01*
X153348141Y-76150786D01*
X153346348Y-76154423D01*
X153345044Y-76158262D01*
X153345042Y-76158269D01*
X153252823Y-76429933D01*
X153252818Y-76429949D01*
X153251519Y-76433778D01*
X153250728Y-76437750D01*
X153250726Y-76437761D01*
X153196513Y-76710313D01*
X153193966Y-76723120D01*
X153193700Y-76727167D01*
X153193700Y-76727173D01*
X153178341Y-76961505D01*
X153174671Y-77017500D01*
X152000500Y-77017500D01*
X152000500Y-65124500D01*
X152020185Y-65057461D01*
X152072989Y-65011706D01*
X152124500Y-65000500D01*
X200875500Y-65000500D01*
X200942539Y-65020185D01*
G37*
%TD.AperFunction*%
%TD*%
M02*
