%TF.GenerationSoftware,KiCad,Pcbnew,7.0.2*%
%TF.CreationDate,2023-04-22T20:19:08-03:00*%
%TF.ProjectId,usbsplitter,75736273-706c-4697-9474-65722e6b6963,1.0.1*%
%TF.SameCoordinates,Original*%
%TF.FileFunction,Copper,L2,Bot*%
%TF.FilePolarity,Positive*%
%FSLAX46Y46*%
G04 Gerber Fmt 4.6, Leading zero omitted, Abs format (unit mm)*
G04 Created by KiCad (PCBNEW 7.0.2) date 2023-04-22 20:19:08*
%MOMM*%
%LPD*%
G01*
G04 APERTURE LIST*
%TA.AperFunction,ComponentPad*%
%ADD10R,1.700000X1.700000*%
%TD*%
%TA.AperFunction,ComponentPad*%
%ADD11O,1.700000X1.700000*%
%TD*%
%TA.AperFunction,ComponentPad*%
%ADD12R,1.524000X1.524000*%
%TD*%
%TA.AperFunction,ComponentPad*%
%ADD13C,1.524000*%
%TD*%
%TA.AperFunction,ComponentPad*%
%ADD14C,3.500000*%
%TD*%
%TA.AperFunction,Conductor*%
%ADD15C,0.800000*%
%TD*%
G04 APERTURE END LIST*
D10*
%TO.P,SW4,1,A*%
%TO.N,/GNDA*%
X179000000Y-82000000D03*
D11*
%TO.P,SW4,2,B*%
%TO.N,GND*%
X176460000Y-82000000D03*
%TO.P,SW4,3,C*%
%TO.N,/GNDB*%
X173920000Y-82000000D03*
%TD*%
D10*
%TO.P,SW3,1,A*%
%TO.N,/D-A*%
X179000000Y-74000000D03*
D11*
%TO.P,SW3,2,B*%
%TO.N,/D-*%
X176460000Y-74000000D03*
%TO.P,SW3,3,C*%
%TO.N,/D-B*%
X173920000Y-74000000D03*
%TD*%
D10*
%TO.P,SW2,1,A*%
%TO.N,/D+A*%
X179000000Y-78000000D03*
D11*
%TO.P,SW2,2,B*%
%TO.N,/D+*%
X176460000Y-78000000D03*
%TO.P,SW2,3,C*%
%TO.N,/D+B*%
X173920000Y-78000000D03*
%TD*%
D10*
%TO.P,SW1,1,A*%
%TO.N,/5VA*%
X179000000Y-70000000D03*
D11*
%TO.P,SW1,2,B*%
%TO.N,+5V*%
X176460000Y-70000000D03*
%TO.P,SW1,3,C*%
%TO.N,/5VB*%
X173920000Y-70000000D03*
%TD*%
D12*
%TO.P,OUT2,1,VBUS*%
%TO.N,/5VB*%
X165500000Y-79727500D03*
D13*
%TO.P,OUT2,2,D-*%
%TO.N,/D-B*%
X163000000Y-79727500D03*
%TO.P,OUT2,3,D+*%
%TO.N,/D+B*%
X161000000Y-79727500D03*
%TO.P,OUT2,4,GND*%
%TO.N,/GNDB*%
X158500000Y-79727500D03*
D14*
%TO.P,OUT2,5,Shield*%
X155430000Y-77017500D03*
X168570000Y-77017500D03*
%TD*%
D12*
%TO.P,OUT1,1,VBUS*%
%TO.N,/5VA*%
X194500000Y-79727500D03*
D13*
%TO.P,OUT1,2,D-*%
%TO.N,/D-A*%
X192000000Y-79727500D03*
%TO.P,OUT1,3,D+*%
%TO.N,/D+A*%
X190000000Y-79727500D03*
%TO.P,OUT1,4,GND*%
%TO.N,/GNDA*%
X187500000Y-79727500D03*
D14*
%TO.P,OUT1,5,Shield*%
X184430000Y-77017500D03*
X197570000Y-77017500D03*
%TD*%
D12*
%TO.P,IN1,1,VBUS*%
%TO.N,+5V*%
X172500000Y-88272500D03*
D13*
%TO.P,IN1,2,D-*%
%TO.N,/D-*%
X175000000Y-88272500D03*
%TO.P,IN1,3,D+*%
%TO.N,/D+*%
X177000000Y-88272500D03*
%TO.P,IN1,4,GND*%
%TO.N,GND*%
X179500000Y-88272500D03*
D14*
%TO.P,IN1,5,Shield*%
X182570000Y-90982500D03*
X169430000Y-90982500D03*
%TD*%
D15*
%TO.N,/GNDB*%
X155430000Y-77017500D02*
X155790000Y-77017500D01*
X155790000Y-77017500D02*
X158500000Y-79727500D01*
X161772500Y-83000000D02*
X172920000Y-83000000D01*
X172920000Y-83000000D02*
X173920000Y-82000000D01*
%TO.N,/GNDA*%
X179000000Y-82000000D02*
X185227500Y-82000000D01*
X185227500Y-82000000D02*
X185613750Y-81613750D01*
%TO.N,/D-A*%
X192000000Y-78649870D02*
X187017630Y-73667500D01*
X187017630Y-73667500D02*
X179332500Y-73667500D01*
X179332500Y-73667500D02*
X179000000Y-74000000D01*
%TO.N,/D+A*%
X186017630Y-74667500D02*
X182332500Y-74667500D01*
X182332500Y-74667500D02*
X179000000Y-78000000D01*
%TO.N,/D+B*%
X173920000Y-78000000D02*
X170370000Y-81550000D01*
%TO.N,/D-B*%
X163000000Y-78649870D02*
X167649870Y-74000000D01*
X167649870Y-74000000D02*
X173920000Y-74000000D01*
%TO.N,/GNDA*%
X185613750Y-81613750D02*
X195448623Y-81613750D01*
X195448623Y-81613750D02*
X197570000Y-79492373D01*
X197570000Y-79492373D02*
X197570000Y-77017500D01*
X184430000Y-80430000D02*
X185613750Y-81613750D01*
X185613750Y-81613750D02*
X187500000Y-79727500D01*
X184430000Y-77017500D02*
X184430000Y-80430000D01*
%TO.N,/D+B*%
X161000000Y-79727500D02*
X162822500Y-81550000D01*
X162822500Y-81550000D02*
X170370000Y-81550000D01*
%TO.N,/D-B*%
X163000000Y-79727500D02*
X163000000Y-78649870D01*
%TO.N,/D-A*%
X192000000Y-78649870D02*
X192000000Y-79727500D01*
%TO.N,/D+A*%
X186017630Y-74667500D02*
X190000000Y-78649870D01*
X190000000Y-78649870D02*
X190000000Y-79727500D01*
%TO.N,/GNDB*%
X158500000Y-79727500D02*
X161772500Y-83000000D01*
%TD*%
%TA.AperFunction,Conductor*%
%TO.N,GND*%
G36*
X182218113Y-76157899D02*
G01*
X182274046Y-76199771D01*
X182298463Y-76265235D01*
X182292198Y-76313939D01*
X182252825Y-76429928D01*
X182252824Y-76429933D01*
X182251519Y-76433778D01*
X182250728Y-76437750D01*
X182250726Y-76437761D01*
X182194758Y-76719137D01*
X182193966Y-76723120D01*
X182193700Y-76727167D01*
X182193700Y-76727173D01*
X182181870Y-76907669D01*
X182174671Y-77017500D01*
X182193966Y-77311880D01*
X182194757Y-77315861D01*
X182194758Y-77315862D01*
X182250726Y-77597238D01*
X182250728Y-77597245D01*
X182251519Y-77601222D01*
X182252819Y-77605053D01*
X182252823Y-77605066D01*
X182306976Y-77764592D01*
X182346348Y-77880577D01*
X182348141Y-77884213D01*
X182348144Y-77884220D01*
X182475032Y-78141525D01*
X182475038Y-78141536D01*
X182476828Y-78145165D01*
X182479079Y-78148534D01*
X182479082Y-78148539D01*
X182638467Y-78387075D01*
X182640727Y-78390457D01*
X182703129Y-78461613D01*
X182826840Y-78602678D01*
X182835242Y-78612258D01*
X183057043Y-78806773D01*
X183302335Y-78970672D01*
X183305973Y-78972466D01*
X183305975Y-78972467D01*
X183460343Y-79048593D01*
X183511762Y-79095898D01*
X183529499Y-79159805D01*
X183529499Y-80349375D01*
X183527973Y-80368768D01*
X183525780Y-80382611D01*
X183529330Y-80450336D01*
X183529500Y-80456825D01*
X183529500Y-80477192D01*
X183529837Y-80480404D01*
X183529838Y-80480413D01*
X183531628Y-80497447D01*
X183532136Y-80503909D01*
X183535686Y-80571645D01*
X183539315Y-80585187D01*
X183542860Y-80604315D01*
X183544325Y-80618254D01*
X183565282Y-80682754D01*
X183567125Y-80688976D01*
X183584679Y-80754487D01*
X183591042Y-80766974D01*
X183598489Y-80784953D01*
X183602820Y-80798283D01*
X183636725Y-80857008D01*
X183639823Y-80862713D01*
X183668607Y-80919205D01*
X183681503Y-80987875D01*
X183655226Y-81052615D01*
X183598120Y-81092872D01*
X183558122Y-81099500D01*
X180451439Y-81099500D01*
X180384400Y-81079815D01*
X180338645Y-81027011D01*
X180335257Y-81018833D01*
X180326081Y-80994230D01*
X180293796Y-80907669D01*
X180207546Y-80792454D01*
X180092331Y-80706204D01*
X179957483Y-80655909D01*
X179897873Y-80649500D01*
X179894550Y-80649500D01*
X178105439Y-80649500D01*
X178105420Y-80649500D01*
X178102128Y-80649501D01*
X178098848Y-80649853D01*
X178098840Y-80649854D01*
X178042515Y-80655909D01*
X177907669Y-80706204D01*
X177792454Y-80792454D01*
X177706204Y-80907669D01*
X177656997Y-81039599D01*
X177615125Y-81095532D01*
X177549661Y-81119949D01*
X177481388Y-81105097D01*
X177453134Y-81083946D01*
X177331081Y-80961893D01*
X177137576Y-80826399D01*
X176923492Y-80726569D01*
X176710000Y-80669364D01*
X176710000Y-81564498D01*
X176602315Y-81515320D01*
X176495763Y-81500000D01*
X176424237Y-81500000D01*
X176317685Y-81515320D01*
X176210000Y-81564498D01*
X176210000Y-80669364D01*
X176209999Y-80669364D01*
X175996507Y-80726569D01*
X175782421Y-80826400D01*
X175588921Y-80961890D01*
X175421893Y-81128918D01*
X175291880Y-81314596D01*
X175237303Y-81358220D01*
X175167804Y-81365413D01*
X175105450Y-81333891D01*
X175088730Y-81314595D01*
X174958494Y-81128598D01*
X174791404Y-80961508D01*
X174791404Y-80961507D01*
X174791401Y-80961505D01*
X174597830Y-80825965D01*
X174383663Y-80726097D01*
X174322502Y-80709709D01*
X174155407Y-80664936D01*
X173920000Y-80644340D01*
X173684592Y-80664936D01*
X173456336Y-80726097D01*
X173242170Y-80825965D01*
X173048598Y-80961505D01*
X172881505Y-81128598D01*
X172745965Y-81322170D01*
X172646097Y-81536336D01*
X172584936Y-81764592D01*
X172565538Y-81986308D01*
X172540085Y-82051376D01*
X172483494Y-82092355D01*
X172442010Y-82099500D01*
X171393361Y-82099500D01*
X171326322Y-82079815D01*
X171280567Y-82027011D01*
X171270623Y-81957853D01*
X171299648Y-81894297D01*
X171305680Y-81887819D01*
X171878904Y-81314595D01*
X173803564Y-79389933D01*
X173864885Y-79356450D01*
X173902048Y-79354088D01*
X173920000Y-79355659D01*
X173920002Y-79355658D01*
X173920004Y-79355659D01*
X174108326Y-79339182D01*
X174155408Y-79335063D01*
X174383663Y-79273903D01*
X174597830Y-79174035D01*
X174791401Y-79038495D01*
X174958495Y-78871401D01*
X175088426Y-78685839D01*
X175143002Y-78642216D01*
X175212500Y-78635022D01*
X175274855Y-78666545D01*
X175291571Y-78685837D01*
X175421505Y-78871401D01*
X175588599Y-79038495D01*
X175782170Y-79174035D01*
X175996337Y-79273903D01*
X176224592Y-79335063D01*
X176460000Y-79355659D01*
X176695408Y-79335063D01*
X176923663Y-79273903D01*
X177137830Y-79174035D01*
X177331401Y-79038495D01*
X177453329Y-78916566D01*
X177514648Y-78883084D01*
X177584340Y-78888068D01*
X177640274Y-78929939D01*
X177657189Y-78960916D01*
X177669398Y-78993650D01*
X177706204Y-79092331D01*
X177792454Y-79207546D01*
X177907669Y-79293796D01*
X178042517Y-79344091D01*
X178102127Y-79350500D01*
X179897872Y-79350499D01*
X179957483Y-79344091D01*
X180092331Y-79293796D01*
X180207546Y-79207546D01*
X180293796Y-79092331D01*
X180344091Y-78957483D01*
X180350500Y-78897873D01*
X180350499Y-77974359D01*
X180370183Y-77907321D01*
X180386813Y-77886684D01*
X182087101Y-76186398D01*
X182148421Y-76152915D01*
X182218113Y-76157899D01*
G37*
%TD.AperFunction*%
%TA.AperFunction,Conductor*%
G36*
X200942539Y-65020185D02*
G01*
X200988294Y-65072989D01*
X200999500Y-65124500D01*
X200999500Y-102875500D01*
X200979815Y-102942539D01*
X200927011Y-102988294D01*
X200875500Y-102999500D01*
X152124500Y-102999500D01*
X152057461Y-102979815D01*
X152011706Y-102927011D01*
X152000500Y-102875500D01*
X152000500Y-99067764D01*
X154145787Y-99067764D01*
X154175413Y-99337016D01*
X154243928Y-99599087D01*
X154349871Y-99848392D01*
X154490982Y-100079611D01*
X154580253Y-100186881D01*
X154664255Y-100287820D01*
X154865998Y-100468582D01*
X155091910Y-100618044D01*
X155198211Y-100667876D01*
X155337177Y-100733021D01*
X155596562Y-100811058D01*
X155596569Y-100811060D01*
X155864561Y-100850500D01*
X155864564Y-100850500D01*
X156065369Y-100850500D01*
X156067631Y-100850500D01*
X156270156Y-100835677D01*
X156534553Y-100776780D01*
X156787558Y-100680014D01*
X157023777Y-100547441D01*
X157238177Y-100381888D01*
X157426186Y-100186881D01*
X157583799Y-99966579D01*
X157707656Y-99725675D01*
X157795118Y-99469305D01*
X157844319Y-99202933D01*
X157849259Y-99067764D01*
X195145787Y-99067764D01*
X195175413Y-99337016D01*
X195243928Y-99599087D01*
X195349871Y-99848392D01*
X195490982Y-100079611D01*
X195580253Y-100186881D01*
X195664255Y-100287820D01*
X195865998Y-100468582D01*
X196091910Y-100618044D01*
X196198211Y-100667876D01*
X196337177Y-100733021D01*
X196596562Y-100811058D01*
X196596569Y-100811060D01*
X196864561Y-100850500D01*
X196864564Y-100850500D01*
X197065369Y-100850500D01*
X197067631Y-100850500D01*
X197270156Y-100835677D01*
X197534553Y-100776780D01*
X197787558Y-100680014D01*
X198023777Y-100547441D01*
X198238177Y-100381888D01*
X198426186Y-100186881D01*
X198583799Y-99966579D01*
X198707656Y-99725675D01*
X198795118Y-99469305D01*
X198844319Y-99202933D01*
X198854212Y-98932235D01*
X198824586Y-98662982D01*
X198756072Y-98400912D01*
X198650130Y-98151610D01*
X198509018Y-97920390D01*
X198509017Y-97920388D01*
X198335746Y-97712181D01*
X198230759Y-97618112D01*
X198134002Y-97531418D01*
X197908090Y-97381956D01*
X197908086Y-97381954D01*
X197662822Y-97266978D01*
X197403437Y-97188941D01*
X197403431Y-97188940D01*
X197135439Y-97149500D01*
X196932369Y-97149500D01*
X196930120Y-97149664D01*
X196930109Y-97149665D01*
X196729843Y-97164322D01*
X196465449Y-97223219D01*
X196212441Y-97319986D01*
X195976223Y-97452559D01*
X195761825Y-97618109D01*
X195573813Y-97813120D01*
X195416201Y-98033420D01*
X195292342Y-98274329D01*
X195204881Y-98530695D01*
X195155680Y-98797066D01*
X195145787Y-99067764D01*
X157849259Y-99067764D01*
X157854212Y-98932235D01*
X157824586Y-98662982D01*
X157756072Y-98400912D01*
X157650130Y-98151610D01*
X157509018Y-97920390D01*
X157509017Y-97920388D01*
X157335746Y-97712181D01*
X157230759Y-97618112D01*
X157134002Y-97531418D01*
X156908090Y-97381956D01*
X156908086Y-97381954D01*
X156662822Y-97266978D01*
X156403437Y-97188941D01*
X156403431Y-97188940D01*
X156135439Y-97149500D01*
X155932369Y-97149500D01*
X155930120Y-97149664D01*
X155930109Y-97149665D01*
X155729843Y-97164322D01*
X155465449Y-97223219D01*
X155212441Y-97319986D01*
X154976223Y-97452559D01*
X154761825Y-97618109D01*
X154573813Y-97813120D01*
X154416201Y-98033420D01*
X154292342Y-98274329D01*
X154204881Y-98530695D01*
X154155680Y-98797066D01*
X154145787Y-99067764D01*
X152000500Y-99067764D01*
X152000500Y-90986543D01*
X167175437Y-90986543D01*
X167194197Y-91272771D01*
X167195253Y-91280793D01*
X167251210Y-91562108D01*
X167253307Y-91569936D01*
X167345505Y-91841538D01*
X167348607Y-91849028D01*
X167475466Y-92106274D01*
X167479516Y-92113288D01*
X167638866Y-92351771D01*
X167643805Y-92358208D01*
X167670405Y-92388539D01*
X167670406Y-92388539D01*
X168459438Y-91599507D01*
X168508348Y-91678499D01*
X168651931Y-91836001D01*
X168810388Y-91955663D01*
X168023959Y-92742092D01*
X168023959Y-92742093D01*
X168054291Y-92768694D01*
X168060728Y-92773633D01*
X168299211Y-92932983D01*
X168306225Y-92937033D01*
X168563471Y-93063892D01*
X168570961Y-93066994D01*
X168842563Y-93159192D01*
X168850391Y-93161289D01*
X169131706Y-93217246D01*
X169139728Y-93218302D01*
X169425957Y-93237063D01*
X169434043Y-93237063D01*
X169720271Y-93218302D01*
X169728293Y-93217246D01*
X170009608Y-93161289D01*
X170017436Y-93159192D01*
X170289038Y-93066994D01*
X170296528Y-93063892D01*
X170553774Y-92937033D01*
X170560788Y-92932983D01*
X170799273Y-92773632D01*
X170805698Y-92768701D01*
X170836040Y-92742092D01*
X170049611Y-91955663D01*
X170208069Y-91836001D01*
X170351652Y-91678499D01*
X170400560Y-91599508D01*
X171189592Y-92388540D01*
X171216201Y-92358198D01*
X171221132Y-92351773D01*
X171380483Y-92113288D01*
X171384533Y-92106274D01*
X171511392Y-91849028D01*
X171514494Y-91841538D01*
X171606692Y-91569936D01*
X171608789Y-91562108D01*
X171664746Y-91280793D01*
X171665802Y-91272771D01*
X171684563Y-90986543D01*
X180315437Y-90986543D01*
X180334197Y-91272771D01*
X180335253Y-91280793D01*
X180391210Y-91562108D01*
X180393307Y-91569936D01*
X180485505Y-91841538D01*
X180488607Y-91849028D01*
X180615466Y-92106274D01*
X180619516Y-92113288D01*
X180778866Y-92351771D01*
X180783805Y-92358208D01*
X180810405Y-92388539D01*
X180810406Y-92388539D01*
X181599438Y-91599507D01*
X181648348Y-91678499D01*
X181791931Y-91836001D01*
X181950388Y-91955663D01*
X181163959Y-92742092D01*
X181163959Y-92742093D01*
X181194291Y-92768694D01*
X181200728Y-92773633D01*
X181439211Y-92932983D01*
X181446225Y-92937033D01*
X181703471Y-93063892D01*
X181710961Y-93066994D01*
X181982563Y-93159192D01*
X181990391Y-93161289D01*
X182271706Y-93217246D01*
X182279728Y-93218302D01*
X182565957Y-93237063D01*
X182574043Y-93237063D01*
X182860271Y-93218302D01*
X182868293Y-93217246D01*
X183149608Y-93161289D01*
X183157436Y-93159192D01*
X183429038Y-93066994D01*
X183436528Y-93063892D01*
X183693774Y-92937033D01*
X183700788Y-92932983D01*
X183939273Y-92773632D01*
X183945698Y-92768701D01*
X183976040Y-92742092D01*
X183189611Y-91955663D01*
X183348069Y-91836001D01*
X183491652Y-91678499D01*
X183540560Y-91599508D01*
X184329592Y-92388540D01*
X184356201Y-92358198D01*
X184361132Y-92351773D01*
X184520483Y-92113288D01*
X184524533Y-92106274D01*
X184651392Y-91849028D01*
X184654494Y-91841538D01*
X184746692Y-91569936D01*
X184748789Y-91562108D01*
X184804746Y-91280793D01*
X184805802Y-91272771D01*
X184824563Y-90986543D01*
X184824563Y-90978456D01*
X184805802Y-90692228D01*
X184804746Y-90684206D01*
X184748789Y-90402891D01*
X184746692Y-90395063D01*
X184654494Y-90123461D01*
X184651392Y-90115971D01*
X184524533Y-89858725D01*
X184520483Y-89851711D01*
X184361133Y-89613228D01*
X184356194Y-89606791D01*
X184329592Y-89576459D01*
X183540560Y-90365491D01*
X183491652Y-90286501D01*
X183348069Y-90128999D01*
X183189610Y-90009335D01*
X183976039Y-89222906D01*
X183976039Y-89222905D01*
X183945708Y-89196305D01*
X183939271Y-89191366D01*
X183700788Y-89032016D01*
X183693774Y-89027966D01*
X183436528Y-88901107D01*
X183429038Y-88898005D01*
X183157436Y-88805807D01*
X183149608Y-88803710D01*
X182868293Y-88747753D01*
X182860271Y-88746697D01*
X182574043Y-88727937D01*
X182565957Y-88727937D01*
X182279728Y-88746697D01*
X182271706Y-88747753D01*
X181990391Y-88803710D01*
X181982563Y-88805807D01*
X181710961Y-88898005D01*
X181703471Y-88901107D01*
X181446225Y-89027966D01*
X181439211Y-89032016D01*
X181200723Y-89191369D01*
X181194295Y-89196301D01*
X181163958Y-89222905D01*
X181163958Y-89222906D01*
X181950388Y-90009336D01*
X181791931Y-90128999D01*
X181648348Y-90286501D01*
X181599439Y-90365491D01*
X180810406Y-89576458D01*
X180810405Y-89576458D01*
X180783801Y-89606795D01*
X180778869Y-89613223D01*
X180619516Y-89851711D01*
X180615466Y-89858725D01*
X180488607Y-90115971D01*
X180485505Y-90123461D01*
X180393307Y-90395063D01*
X180391210Y-90402891D01*
X180335253Y-90684206D01*
X180334197Y-90692228D01*
X180315437Y-90978456D01*
X180315437Y-90986543D01*
X171684563Y-90986543D01*
X171684563Y-90978456D01*
X171665802Y-90692228D01*
X171664746Y-90684206D01*
X171608789Y-90402891D01*
X171606692Y-90395063D01*
X171514494Y-90123461D01*
X171511392Y-90115971D01*
X171384533Y-89858725D01*
X171380483Y-89851711D01*
X171221133Y-89613228D01*
X171216194Y-89606791D01*
X171189592Y-89576459D01*
X170400560Y-90365491D01*
X170351652Y-90286501D01*
X170208069Y-90128999D01*
X170049610Y-90009335D01*
X170836039Y-89222906D01*
X170836039Y-89222905D01*
X170805708Y-89196305D01*
X170799271Y-89191366D01*
X170631221Y-89079078D01*
X171237500Y-89079078D01*
X171237501Y-89082372D01*
X171237853Y-89085652D01*
X171237854Y-89085659D01*
X171243909Y-89141984D01*
X171262328Y-89191366D01*
X171294204Y-89276831D01*
X171380454Y-89392046D01*
X171495669Y-89478296D01*
X171630517Y-89528591D01*
X171690127Y-89535000D01*
X173309872Y-89534999D01*
X173369483Y-89528591D01*
X173504331Y-89478296D01*
X173619546Y-89392046D01*
X173705796Y-89276831D01*
X173756091Y-89141983D01*
X173762229Y-89084888D01*
X173788965Y-89020340D01*
X173846357Y-88980491D01*
X173916182Y-88977996D01*
X173976272Y-89013648D01*
X173987087Y-89027014D01*
X174029174Y-89087120D01*
X174185380Y-89243326D01*
X174366338Y-89370034D01*
X174566550Y-89463394D01*
X174779932Y-89520570D01*
X175000000Y-89539823D01*
X175220068Y-89520570D01*
X175433450Y-89463394D01*
X175633662Y-89370034D01*
X175814620Y-89243326D01*
X175912322Y-89145623D01*
X175973641Y-89112141D01*
X176043333Y-89117125D01*
X176087676Y-89145622D01*
X176185380Y-89243326D01*
X176366338Y-89370034D01*
X176566550Y-89463394D01*
X176779932Y-89520570D01*
X177000000Y-89539823D01*
X177220068Y-89520570D01*
X177433450Y-89463394D01*
X177633662Y-89370034D01*
X177814620Y-89243326D01*
X177970826Y-89087120D01*
X178097534Y-88906162D01*
X178137894Y-88819608D01*
X178184066Y-88767169D01*
X178251259Y-88748017D01*
X178318140Y-88768232D01*
X178362658Y-88819609D01*
X178402899Y-88905907D01*
X178448258Y-88970687D01*
X179046220Y-88372725D01*
X179046467Y-88376016D01*
X179097128Y-88505098D01*
X179183586Y-88613513D01*
X179298159Y-88691627D01*
X179402301Y-88723750D01*
X178801812Y-89324240D01*
X178866593Y-89369601D01*
X179066718Y-89462920D01*
X179280021Y-89520075D01*
X179500000Y-89539321D01*
X179719978Y-89520075D01*
X179933281Y-89462920D01*
X180133408Y-89369600D01*
X180198187Y-89324240D01*
X179597020Y-88723072D01*
X179637119Y-88717029D01*
X179762054Y-88656863D01*
X179863705Y-88562545D01*
X179933039Y-88442455D01*
X179949850Y-88368796D01*
X180551740Y-88970686D01*
X180597100Y-88905908D01*
X180690420Y-88705781D01*
X180747575Y-88492478D01*
X180766821Y-88272499D01*
X180747575Y-88052521D01*
X180690421Y-87839220D01*
X180597098Y-87639089D01*
X180551740Y-87574311D01*
X179953779Y-88172271D01*
X179953533Y-88168984D01*
X179902872Y-88039902D01*
X179816414Y-87931487D01*
X179701841Y-87853373D01*
X179597697Y-87821249D01*
X180198187Y-87220758D01*
X180133406Y-87175398D01*
X179933281Y-87082079D01*
X179879857Y-87067764D01*
X188145787Y-87067764D01*
X188175413Y-87337016D01*
X188217904Y-87499545D01*
X188243928Y-87599088D01*
X188341193Y-87827971D01*
X188349871Y-87848392D01*
X188490982Y-88079611D01*
X188664253Y-88287818D01*
X188664255Y-88287820D01*
X188865998Y-88468582D01*
X189091910Y-88618044D01*
X189198211Y-88667876D01*
X189337177Y-88733021D01*
X189596562Y-88811058D01*
X189596569Y-88811060D01*
X189864561Y-88850500D01*
X189864564Y-88850500D01*
X190065369Y-88850500D01*
X190067631Y-88850500D01*
X190270156Y-88835677D01*
X190534553Y-88776780D01*
X190787558Y-88680014D01*
X191023777Y-88547441D01*
X191238177Y-88381888D01*
X191426186Y-88186881D01*
X191583799Y-87966579D01*
X191707656Y-87725675D01*
X191795118Y-87469305D01*
X191844319Y-87202933D01*
X191854212Y-86932235D01*
X191824586Y-86662982D01*
X191756072Y-86400912D01*
X191650130Y-86151610D01*
X191509018Y-85920390D01*
X191509017Y-85920388D01*
X191335746Y-85712181D01*
X191230759Y-85618112D01*
X191134002Y-85531418D01*
X190908090Y-85381956D01*
X190908086Y-85381954D01*
X190662822Y-85266978D01*
X190403437Y-85188941D01*
X190403431Y-85188940D01*
X190135439Y-85149500D01*
X189932369Y-85149500D01*
X189930120Y-85149664D01*
X189930109Y-85149665D01*
X189729843Y-85164322D01*
X189465449Y-85223219D01*
X189212441Y-85319986D01*
X188976223Y-85452559D01*
X188761825Y-85618109D01*
X188573813Y-85813120D01*
X188416201Y-86033420D01*
X188292342Y-86274329D01*
X188204881Y-86530695D01*
X188155680Y-86797066D01*
X188145787Y-87067764D01*
X179879857Y-87067764D01*
X179719978Y-87024924D01*
X179500000Y-87005678D01*
X179280021Y-87024924D01*
X179066719Y-87082078D01*
X178866589Y-87175400D01*
X178801812Y-87220758D01*
X178801811Y-87220758D01*
X179402980Y-87821927D01*
X179362881Y-87827971D01*
X179237946Y-87888137D01*
X179136295Y-87982455D01*
X179066961Y-88102545D01*
X179050149Y-88176202D01*
X178448258Y-87574311D01*
X178448258Y-87574312D01*
X178402901Y-87639088D01*
X178362657Y-87725392D01*
X178316484Y-87777831D01*
X178249290Y-87796982D01*
X178182409Y-87776766D01*
X178137893Y-87725390D01*
X178097534Y-87638839D01*
X178069700Y-87599088D01*
X177970826Y-87457880D01*
X177814620Y-87301674D01*
X177633662Y-87174966D01*
X177586457Y-87152954D01*
X177433451Y-87081606D01*
X177220065Y-87024429D01*
X177000000Y-87005176D01*
X176779934Y-87024429D01*
X176566548Y-87081606D01*
X176366338Y-87174966D01*
X176185379Y-87301674D01*
X176087681Y-87399373D01*
X176026358Y-87432858D01*
X175956666Y-87427874D01*
X175912319Y-87399373D01*
X175814620Y-87301674D01*
X175633662Y-87174966D01*
X175433451Y-87081606D01*
X175220065Y-87024429D01*
X175000000Y-87005176D01*
X174779934Y-87024429D01*
X174566548Y-87081606D01*
X174366338Y-87174966D01*
X174185379Y-87301674D01*
X174029177Y-87457876D01*
X174029174Y-87457879D01*
X174029174Y-87457880D01*
X174015756Y-87477044D01*
X173987093Y-87517979D01*
X173932516Y-87561603D01*
X173863017Y-87568796D01*
X173800663Y-87537274D01*
X173765249Y-87477044D01*
X173762228Y-87460108D01*
X173762145Y-87459333D01*
X173756091Y-87403017D01*
X173705796Y-87268169D01*
X173619546Y-87152954D01*
X173504331Y-87066704D01*
X173369483Y-87016409D01*
X173309873Y-87010000D01*
X173306550Y-87010000D01*
X171693439Y-87010000D01*
X171693420Y-87010000D01*
X171690128Y-87010001D01*
X171686848Y-87010353D01*
X171686840Y-87010354D01*
X171630515Y-87016409D01*
X171495669Y-87066704D01*
X171380454Y-87152954D01*
X171294204Y-87268168D01*
X171243909Y-87403016D01*
X171240701Y-87432858D01*
X171237500Y-87462627D01*
X171237500Y-87465948D01*
X171237500Y-87465949D01*
X171237500Y-89079060D01*
X171237500Y-89079078D01*
X170631221Y-89079078D01*
X170560788Y-89032016D01*
X170553774Y-89027966D01*
X170296528Y-88901107D01*
X170289038Y-88898005D01*
X170017436Y-88805807D01*
X170009608Y-88803710D01*
X169728293Y-88747753D01*
X169720271Y-88746697D01*
X169434043Y-88727937D01*
X169425957Y-88727937D01*
X169139728Y-88746697D01*
X169131706Y-88747753D01*
X168850391Y-88803710D01*
X168842563Y-88805807D01*
X168570961Y-88898005D01*
X168563471Y-88901107D01*
X168306225Y-89027966D01*
X168299211Y-89032016D01*
X168060723Y-89191369D01*
X168054295Y-89196301D01*
X168023958Y-89222905D01*
X168023958Y-89222906D01*
X168810388Y-90009336D01*
X168651931Y-90128999D01*
X168508348Y-90286501D01*
X168459439Y-90365491D01*
X167670406Y-89576458D01*
X167670405Y-89576458D01*
X167643801Y-89606795D01*
X167638869Y-89613223D01*
X167479516Y-89851711D01*
X167475466Y-89858725D01*
X167348607Y-90115971D01*
X167345505Y-90123461D01*
X167253307Y-90395063D01*
X167251210Y-90402891D01*
X167195253Y-90684206D01*
X167194197Y-90692228D01*
X167175437Y-90978456D01*
X167175437Y-90986543D01*
X152000500Y-90986543D01*
X152000500Y-87067764D01*
X160145787Y-87067764D01*
X160175413Y-87337016D01*
X160217904Y-87499545D01*
X160243928Y-87599088D01*
X160341193Y-87827971D01*
X160349871Y-87848392D01*
X160490982Y-88079611D01*
X160664253Y-88287818D01*
X160664255Y-88287820D01*
X160865998Y-88468582D01*
X161091910Y-88618044D01*
X161198211Y-88667876D01*
X161337177Y-88733021D01*
X161596562Y-88811058D01*
X161596569Y-88811060D01*
X161864561Y-88850500D01*
X161864564Y-88850500D01*
X162065369Y-88850500D01*
X162067631Y-88850500D01*
X162270156Y-88835677D01*
X162534553Y-88776780D01*
X162787558Y-88680014D01*
X163023777Y-88547441D01*
X163238177Y-88381888D01*
X163426186Y-88186881D01*
X163583799Y-87966579D01*
X163707656Y-87725675D01*
X163795118Y-87469305D01*
X163844319Y-87202933D01*
X163854212Y-86932235D01*
X163824586Y-86662982D01*
X163756072Y-86400912D01*
X163650130Y-86151610D01*
X163509018Y-85920390D01*
X163509017Y-85920388D01*
X163335746Y-85712181D01*
X163230759Y-85618112D01*
X163134002Y-85531418D01*
X162908090Y-85381956D01*
X162908086Y-85381954D01*
X162662822Y-85266978D01*
X162403437Y-85188941D01*
X162403431Y-85188940D01*
X162135439Y-85149500D01*
X161932369Y-85149500D01*
X161930120Y-85149664D01*
X161930109Y-85149665D01*
X161729843Y-85164322D01*
X161465449Y-85223219D01*
X161212441Y-85319986D01*
X160976223Y-85452559D01*
X160761825Y-85618109D01*
X160573813Y-85813120D01*
X160416201Y-86033420D01*
X160292342Y-86274329D01*
X160204881Y-86530695D01*
X160155680Y-86797066D01*
X160145787Y-87067764D01*
X152000500Y-87067764D01*
X152000500Y-77017500D01*
X153174671Y-77017500D01*
X153193966Y-77311880D01*
X153194757Y-77315861D01*
X153194758Y-77315862D01*
X153250726Y-77597238D01*
X153250728Y-77597245D01*
X153251519Y-77601222D01*
X153252819Y-77605053D01*
X153252823Y-77605066D01*
X153306976Y-77764592D01*
X153346348Y-77880577D01*
X153348141Y-77884213D01*
X153348144Y-77884220D01*
X153475032Y-78141525D01*
X153475038Y-78141536D01*
X153476828Y-78145165D01*
X153479079Y-78148534D01*
X153479082Y-78148539D01*
X153638467Y-78387075D01*
X153640727Y-78390457D01*
X153703129Y-78461613D01*
X153826840Y-78602678D01*
X153835242Y-78612258D01*
X154057043Y-78806773D01*
X154302335Y-78970672D01*
X154305968Y-78972463D01*
X154305974Y-78972467D01*
X154471626Y-79054157D01*
X154566923Y-79101152D01*
X154739708Y-79159805D01*
X154842433Y-79194676D01*
X154842435Y-79194676D01*
X154846278Y-79195981D01*
X155135620Y-79253534D01*
X155430000Y-79272829D01*
X155724380Y-79253534D01*
X156013722Y-79195981D01*
X156293077Y-79101152D01*
X156419042Y-79039032D01*
X156487870Y-79027036D01*
X156552261Y-79054157D01*
X156561564Y-79062564D01*
X157201355Y-79702354D01*
X157234840Y-79763677D01*
X157237202Y-79779228D01*
X157251929Y-79947565D01*
X157309106Y-80160951D01*
X157367443Y-80286054D01*
X157402466Y-80361162D01*
X157529174Y-80542120D01*
X157685380Y-80698326D01*
X157866338Y-80825034D01*
X158066550Y-80918394D01*
X158279932Y-80975570D01*
X158448270Y-80990296D01*
X158513338Y-81015747D01*
X158525143Y-81026142D01*
X159829798Y-82330798D01*
X161078736Y-83579736D01*
X161091369Y-83594526D01*
X161099612Y-83605871D01*
X161146070Y-83647702D01*
X161150007Y-83651247D01*
X161154715Y-83655715D01*
X161169120Y-83670120D01*
X161184922Y-83682916D01*
X161184937Y-83682928D01*
X161189875Y-83687145D01*
X161240281Y-83732531D01*
X161240283Y-83732532D01*
X161240284Y-83732533D01*
X161252422Y-83739541D01*
X161268454Y-83750559D01*
X161279351Y-83759383D01*
X161339779Y-83790171D01*
X161345474Y-83793264D01*
X161404212Y-83827177D01*
X161404213Y-83827177D01*
X161404216Y-83827179D01*
X161417553Y-83831512D01*
X161435520Y-83838955D01*
X161448012Y-83845320D01*
X161513528Y-83862874D01*
X161519737Y-83864714D01*
X161584244Y-83885674D01*
X161598190Y-83887139D01*
X161617303Y-83890681D01*
X161630855Y-83894313D01*
X161698595Y-83897862D01*
X161705053Y-83898371D01*
X161725308Y-83900500D01*
X161745675Y-83900500D01*
X161752164Y-83900670D01*
X161819888Y-83904219D01*
X161833728Y-83902026D01*
X161853126Y-83900500D01*
X172839374Y-83900500D01*
X172858771Y-83902026D01*
X172872612Y-83904219D01*
X172940336Y-83900670D01*
X172946826Y-83900500D01*
X172963952Y-83900500D01*
X172967192Y-83900500D01*
X172970413Y-83900161D01*
X172970421Y-83900161D01*
X172987447Y-83898371D01*
X172993906Y-83897862D01*
X173061646Y-83894313D01*
X173075193Y-83890682D01*
X173094309Y-83887139D01*
X173108256Y-83885674D01*
X173172786Y-83864706D01*
X173178951Y-83862880D01*
X173244488Y-83845320D01*
X173256974Y-83838956D01*
X173274953Y-83831509D01*
X173288284Y-83827179D01*
X173347051Y-83793248D01*
X173352677Y-83790193D01*
X173413149Y-83759383D01*
X173424045Y-83750559D01*
X173440074Y-83739542D01*
X173452216Y-83732533D01*
X173502638Y-83687131D01*
X173507540Y-83682945D01*
X173523380Y-83670119D01*
X173537783Y-83655715D01*
X173542471Y-83651265D01*
X173592888Y-83605871D01*
X173601129Y-83594526D01*
X173613762Y-83579736D01*
X173803566Y-83389932D01*
X173864885Y-83356450D01*
X173902048Y-83354088D01*
X173920000Y-83355659D01*
X173920002Y-83355658D01*
X173920004Y-83355659D01*
X174108326Y-83339182D01*
X174155408Y-83335063D01*
X174383663Y-83273903D01*
X174597830Y-83174035D01*
X174791401Y-83038495D01*
X174958495Y-82871401D01*
X175088732Y-82685403D01*
X175143307Y-82641780D01*
X175212805Y-82634586D01*
X175275160Y-82666109D01*
X175291880Y-82685404D01*
X175421893Y-82871081D01*
X175588918Y-83038106D01*
X175782423Y-83173600D01*
X175996509Y-83273430D01*
X176210000Y-83330634D01*
X176210000Y-82435501D01*
X176317685Y-82484680D01*
X176424237Y-82500000D01*
X176495763Y-82500000D01*
X176602315Y-82484680D01*
X176710000Y-82435501D01*
X176710000Y-83330633D01*
X176923490Y-83273430D01*
X177137576Y-83173600D01*
X177331077Y-83038109D01*
X177453133Y-82916053D01*
X177514456Y-82882568D01*
X177584148Y-82887552D01*
X177640082Y-82929423D01*
X177656996Y-82960399D01*
X177706204Y-83092331D01*
X177792454Y-83207546D01*
X177907669Y-83293796D01*
X178042517Y-83344091D01*
X178102127Y-83350500D01*
X179897872Y-83350499D01*
X179957483Y-83344091D01*
X180092331Y-83293796D01*
X180207546Y-83207546D01*
X180293796Y-83092331D01*
X180335257Y-82981165D01*
X180377128Y-82925233D01*
X180442592Y-82900816D01*
X180451439Y-82900500D01*
X185146874Y-82900500D01*
X185166271Y-82902026D01*
X185180112Y-82904219D01*
X185247836Y-82900670D01*
X185254326Y-82900500D01*
X185271452Y-82900500D01*
X185274692Y-82900500D01*
X185277913Y-82900161D01*
X185277921Y-82900161D01*
X185294947Y-82898371D01*
X185301406Y-82897862D01*
X185369146Y-82894313D01*
X185382693Y-82890682D01*
X185401809Y-82887139D01*
X185415756Y-82885674D01*
X185480286Y-82864706D01*
X185486451Y-82862880D01*
X185551988Y-82845320D01*
X185564474Y-82838956D01*
X185582453Y-82831509D01*
X185595784Y-82827179D01*
X185654551Y-82793248D01*
X185660177Y-82790193D01*
X185720649Y-82759383D01*
X185731542Y-82750560D01*
X185747574Y-82739542D01*
X185759716Y-82732533D01*
X185810138Y-82687131D01*
X185815040Y-82682945D01*
X185830880Y-82670119D01*
X185845279Y-82655718D01*
X185849971Y-82651265D01*
X185900388Y-82605871D01*
X185908624Y-82594533D01*
X185921264Y-82579735D01*
X185950430Y-82550569D01*
X186011753Y-82517084D01*
X186038111Y-82514250D01*
X195367997Y-82514250D01*
X195387394Y-82515776D01*
X195401235Y-82517969D01*
X195468959Y-82514420D01*
X195475449Y-82514250D01*
X195492575Y-82514250D01*
X195495815Y-82514250D01*
X195499036Y-82513911D01*
X195499044Y-82513911D01*
X195516070Y-82512121D01*
X195522529Y-82511612D01*
X195590269Y-82508063D01*
X195603816Y-82504432D01*
X195622932Y-82500889D01*
X195636879Y-82499424D01*
X195701409Y-82478456D01*
X195707574Y-82476630D01*
X195773111Y-82459070D01*
X195785597Y-82452706D01*
X195803576Y-82445259D01*
X195816907Y-82440929D01*
X195875674Y-82406998D01*
X195881300Y-82403943D01*
X195941772Y-82373133D01*
X195952665Y-82364310D01*
X195968697Y-82353292D01*
X195980839Y-82346283D01*
X196031261Y-82300881D01*
X196036163Y-82296695D01*
X196052003Y-82283869D01*
X196066402Y-82269468D01*
X196071094Y-82265015D01*
X196121511Y-82219621D01*
X196129752Y-82208276D01*
X196142383Y-82193487D01*
X198149737Y-80186133D01*
X198164526Y-80173502D01*
X198175871Y-80165261D01*
X198221265Y-80114844D01*
X198225721Y-80110150D01*
X198237813Y-80098059D01*
X198237814Y-80098057D01*
X198240119Y-80095753D01*
X198252945Y-80079913D01*
X198257135Y-80075008D01*
X198302533Y-80024589D01*
X198309542Y-80012447D01*
X198320560Y-79996415D01*
X198329383Y-79985522D01*
X198360193Y-79925050D01*
X198363248Y-79919424D01*
X198397179Y-79860657D01*
X198401509Y-79847326D01*
X198408956Y-79829347D01*
X198415320Y-79816861D01*
X198432880Y-79751324D01*
X198434706Y-79745159D01*
X198455674Y-79680629D01*
X198457139Y-79666682D01*
X198460682Y-79647566D01*
X198464313Y-79634019D01*
X198467862Y-79566279D01*
X198468371Y-79559820D01*
X198470161Y-79542794D01*
X198470161Y-79542786D01*
X198470500Y-79539565D01*
X198470500Y-79519197D01*
X198470670Y-79512708D01*
X198470946Y-79507434D01*
X198474219Y-79444985D01*
X198472027Y-79431144D01*
X198470500Y-79411746D01*
X198470500Y-79159805D01*
X198490185Y-79092766D01*
X198539656Y-79048593D01*
X198583370Y-79027036D01*
X198697665Y-78970672D01*
X198942957Y-78806773D01*
X199164758Y-78612258D01*
X199359273Y-78390457D01*
X199523172Y-78145165D01*
X199653652Y-77880577D01*
X199748481Y-77601222D01*
X199806034Y-77311880D01*
X199825329Y-77017500D01*
X199806034Y-76723120D01*
X199748481Y-76433778D01*
X199653652Y-76154423D01*
X199523172Y-75889836D01*
X199359273Y-75644543D01*
X199164758Y-75422742D01*
X198942957Y-75228227D01*
X198939575Y-75225967D01*
X198701039Y-75066582D01*
X198701034Y-75066579D01*
X198697665Y-75064328D01*
X198694036Y-75062538D01*
X198694025Y-75062532D01*
X198436720Y-74935644D01*
X198436713Y-74935641D01*
X198433077Y-74933848D01*
X198421562Y-74929939D01*
X198157566Y-74840323D01*
X198157553Y-74840319D01*
X198153722Y-74839019D01*
X198149745Y-74838228D01*
X198149738Y-74838226D01*
X197868362Y-74782258D01*
X197868361Y-74782257D01*
X197864380Y-74781466D01*
X197860330Y-74781200D01*
X197860326Y-74781200D01*
X197574058Y-74762437D01*
X197570000Y-74762171D01*
X197565942Y-74762437D01*
X197279673Y-74781200D01*
X197279667Y-74781200D01*
X197275620Y-74781466D01*
X197271640Y-74782257D01*
X197271637Y-74782258D01*
X196990261Y-74838226D01*
X196990250Y-74838228D01*
X196986278Y-74839019D01*
X196982449Y-74840318D01*
X196982433Y-74840323D01*
X196710769Y-74932542D01*
X196710762Y-74932544D01*
X196706923Y-74933848D01*
X196703286Y-74935641D01*
X196703280Y-74935644D01*
X196445976Y-75062532D01*
X196445964Y-75062538D01*
X196442336Y-75064328D01*
X196438973Y-75066575D01*
X196438961Y-75066582D01*
X196200424Y-75225967D01*
X196200414Y-75225973D01*
X196197043Y-75228227D01*
X196193992Y-75230902D01*
X196193985Y-75230908D01*
X195978290Y-75420068D01*
X195978282Y-75420075D01*
X195975242Y-75422742D01*
X195972575Y-75425782D01*
X195972568Y-75425790D01*
X195783408Y-75641485D01*
X195783402Y-75641492D01*
X195780727Y-75644543D01*
X195778473Y-75647914D01*
X195778467Y-75647924D01*
X195619082Y-75886461D01*
X195619075Y-75886473D01*
X195616828Y-75889836D01*
X195615038Y-75893464D01*
X195615032Y-75893476D01*
X195488144Y-76150780D01*
X195488141Y-76150786D01*
X195486348Y-76154423D01*
X195485044Y-76158262D01*
X195485042Y-76158269D01*
X195392823Y-76429933D01*
X195392818Y-76429949D01*
X195391519Y-76433778D01*
X195390728Y-76437750D01*
X195390726Y-76437761D01*
X195334758Y-76719137D01*
X195333966Y-76723120D01*
X195333700Y-76727167D01*
X195333700Y-76727173D01*
X195321870Y-76907669D01*
X195314671Y-77017500D01*
X195333966Y-77311880D01*
X195334757Y-77315861D01*
X195334758Y-77315862D01*
X195390726Y-77597238D01*
X195390728Y-77597245D01*
X195391519Y-77601222D01*
X195392819Y-77605053D01*
X195392823Y-77605066D01*
X195446976Y-77764592D01*
X195486348Y-77880577D01*
X195488141Y-77884213D01*
X195488144Y-77884220D01*
X195615032Y-78141525D01*
X195615038Y-78141536D01*
X195616828Y-78145165D01*
X195619079Y-78148534D01*
X195619082Y-78148539D01*
X195778467Y-78387075D01*
X195780727Y-78390457D01*
X195843129Y-78461613D01*
X195966840Y-78602678D01*
X195975242Y-78612258D01*
X196197043Y-78806773D01*
X196442335Y-78970672D01*
X196538867Y-79018276D01*
X196590286Y-79065581D01*
X196607968Y-79133176D01*
X196586298Y-79199600D01*
X196571704Y-79217169D01*
X195974180Y-79814693D01*
X195912857Y-79848178D01*
X195843165Y-79843194D01*
X195787232Y-79801322D01*
X195762815Y-79735858D01*
X195762499Y-79727012D01*
X195762499Y-78920939D01*
X195762499Y-78917628D01*
X195756091Y-78858017D01*
X195705796Y-78723169D01*
X195619546Y-78607954D01*
X195504331Y-78521704D01*
X195369483Y-78471409D01*
X195309873Y-78465000D01*
X195306550Y-78465000D01*
X193693439Y-78465000D01*
X193693420Y-78465000D01*
X193690128Y-78465001D01*
X193686848Y-78465353D01*
X193686840Y-78465354D01*
X193630515Y-78471409D01*
X193495669Y-78521704D01*
X193380454Y-78607954D01*
X193294204Y-78723168D01*
X193243910Y-78858015D01*
X193243909Y-78858017D01*
X193237854Y-78914340D01*
X193237771Y-78915109D01*
X193211032Y-78979660D01*
X193153640Y-79019508D01*
X193083815Y-79022002D01*
X193023726Y-78986350D01*
X193012906Y-78972977D01*
X192976469Y-78920939D01*
X192970826Y-78912880D01*
X192936819Y-78878873D01*
X192903334Y-78817550D01*
X192900500Y-78791192D01*
X192900500Y-78730496D01*
X192902027Y-78711097D01*
X192904219Y-78697258D01*
X192900670Y-78629533D01*
X192900500Y-78623049D01*
X192900500Y-78605919D01*
X192900500Y-78602678D01*
X192898370Y-78582412D01*
X192897861Y-78575956D01*
X192894312Y-78508224D01*
X192890684Y-78494684D01*
X192887139Y-78475554D01*
X192885674Y-78461612D01*
X192864716Y-78397114D01*
X192862871Y-78390885D01*
X192845321Y-78325384D01*
X192838958Y-78312897D01*
X192831508Y-78294911D01*
X192827179Y-78281586D01*
X192793249Y-78222819D01*
X192790178Y-78217162D01*
X192770844Y-78179215D01*
X192759383Y-78156720D01*
X192750562Y-78145828D01*
X192739537Y-78129786D01*
X192732535Y-78117657D01*
X192732534Y-78117656D01*
X192732533Y-78117654D01*
X192687127Y-78067225D01*
X192682932Y-78062312D01*
X192672161Y-78049012D01*
X192670119Y-78046490D01*
X192655724Y-78032095D01*
X192651255Y-78027386D01*
X192605871Y-77976981D01*
X192594531Y-77968743D01*
X192579734Y-77956105D01*
X187711394Y-73087765D01*
X187698755Y-73072967D01*
X187690518Y-73061629D01*
X187640112Y-73016243D01*
X187635403Y-73011774D01*
X187623309Y-72999680D01*
X187621010Y-72997381D01*
X187618493Y-72995343D01*
X187618489Y-72995339D01*
X187605187Y-72984567D01*
X187600255Y-72980354D01*
X187549845Y-72934966D01*
X187537706Y-72927958D01*
X187521673Y-72916939D01*
X187510779Y-72908117D01*
X187510777Y-72908116D01*
X187510776Y-72908115D01*
X187450343Y-72877323D01*
X187444638Y-72874225D01*
X187385913Y-72840320D01*
X187372583Y-72835989D01*
X187354604Y-72828542D01*
X187342117Y-72822179D01*
X187276606Y-72804625D01*
X187270384Y-72802782D01*
X187205884Y-72781825D01*
X187191945Y-72780360D01*
X187172817Y-72776815D01*
X187159275Y-72773186D01*
X187091539Y-72769636D01*
X187085077Y-72769128D01*
X187068043Y-72767338D01*
X187068034Y-72767337D01*
X187064822Y-72767000D01*
X187061577Y-72767000D01*
X187044456Y-72767000D01*
X187037967Y-72766830D01*
X187033005Y-72766569D01*
X186970242Y-72763281D01*
X186970241Y-72763281D01*
X186962706Y-72764474D01*
X186956401Y-72765473D01*
X186937004Y-72767000D01*
X180214816Y-72767000D01*
X180147777Y-72747315D01*
X180140506Y-72742267D01*
X180092333Y-72706205D01*
X180092331Y-72706204D01*
X179957483Y-72655909D01*
X179897873Y-72649500D01*
X179894550Y-72649500D01*
X178105439Y-72649500D01*
X178105420Y-72649500D01*
X178102128Y-72649501D01*
X178098848Y-72649853D01*
X178098840Y-72649854D01*
X178042515Y-72655909D01*
X177907669Y-72706204D01*
X177792454Y-72792454D01*
X177706204Y-72907669D01*
X177657189Y-73039083D01*
X177615317Y-73095016D01*
X177549852Y-73119433D01*
X177481580Y-73104581D01*
X177453326Y-73083430D01*
X177331404Y-72961508D01*
X177331404Y-72961507D01*
X177331401Y-72961505D01*
X177137830Y-72825965D01*
X176923663Y-72726097D01*
X176849424Y-72706205D01*
X176695407Y-72664936D01*
X176460000Y-72644340D01*
X176224592Y-72664936D01*
X175996336Y-72726097D01*
X175782170Y-72825965D01*
X175588598Y-72961505D01*
X175421505Y-73128598D01*
X175291575Y-73314159D01*
X175236998Y-73357784D01*
X175167500Y-73364978D01*
X175105145Y-73333455D01*
X175088425Y-73314159D01*
X175036932Y-73240619D01*
X174958495Y-73128599D01*
X174791401Y-72961505D01*
X174597830Y-72825965D01*
X174383663Y-72726097D01*
X174309424Y-72706205D01*
X174155407Y-72664936D01*
X173919999Y-72644340D01*
X173684592Y-72664936D01*
X173456336Y-72726097D01*
X173242170Y-72825965D01*
X173048598Y-72961505D01*
X172946923Y-73063181D01*
X172885600Y-73096666D01*
X172859242Y-73099500D01*
X167730496Y-73099500D01*
X167711098Y-73097973D01*
X167697258Y-73095781D01*
X167629540Y-73099330D01*
X167623050Y-73099500D01*
X167602678Y-73099500D01*
X167599463Y-73099837D01*
X167599458Y-73099838D01*
X167587823Y-73101060D01*
X167582409Y-73101629D01*
X167575954Y-73102137D01*
X167508221Y-73105687D01*
X167494679Y-73109316D01*
X167475555Y-73112860D01*
X167461614Y-73114325D01*
X167397115Y-73135282D01*
X167390893Y-73137126D01*
X167325380Y-73154680D01*
X167312891Y-73161044D01*
X167294922Y-73168487D01*
X167281587Y-73172820D01*
X167222866Y-73206722D01*
X167217165Y-73209818D01*
X167156715Y-73240619D01*
X167145820Y-73249442D01*
X167129792Y-73260458D01*
X167117654Y-73267466D01*
X167067246Y-73312852D01*
X167062321Y-73317059D01*
X167049006Y-73327843D01*
X167046490Y-73329881D01*
X167044207Y-73332163D01*
X167044189Y-73332180D01*
X167032079Y-73344289D01*
X167027378Y-73348751D01*
X166976978Y-73394132D01*
X166968739Y-73405472D01*
X166956105Y-73420264D01*
X162420264Y-77956105D01*
X162405472Y-77968739D01*
X162394132Y-77976978D01*
X162348751Y-78027378D01*
X162344289Y-78032079D01*
X162332180Y-78044189D01*
X162332163Y-78044207D01*
X162329881Y-78046490D01*
X162327846Y-78049002D01*
X162327843Y-78049006D01*
X162317059Y-78062321D01*
X162312852Y-78067246D01*
X162267466Y-78117654D01*
X162260458Y-78129792D01*
X162249442Y-78145820D01*
X162240619Y-78156715D01*
X162209818Y-78217165D01*
X162206722Y-78222866D01*
X162172822Y-78281583D01*
X162172821Y-78281585D01*
X162172821Y-78281586D01*
X162168492Y-78294911D01*
X162168488Y-78294922D01*
X162161044Y-78312892D01*
X162154680Y-78325382D01*
X162137126Y-78390887D01*
X162135284Y-78397104D01*
X162114325Y-78461613D01*
X162112860Y-78475556D01*
X162109315Y-78494684D01*
X162105686Y-78508225D01*
X162102136Y-78575961D01*
X162101628Y-78582423D01*
X162099840Y-78599445D01*
X162099500Y-78602678D01*
X162099500Y-78605919D01*
X162099500Y-78605922D01*
X162099500Y-78623044D01*
X162099330Y-78629533D01*
X162095781Y-78697258D01*
X162097973Y-78711097D01*
X162099500Y-78730496D01*
X162099500Y-78742192D01*
X162079815Y-78809231D01*
X162027011Y-78854986D01*
X161957853Y-78864930D01*
X161894297Y-78835905D01*
X161887819Y-78829873D01*
X161814620Y-78756674D01*
X161633662Y-78629966D01*
X161433451Y-78536606D01*
X161220065Y-78479429D01*
X161000000Y-78460176D01*
X160779934Y-78479429D01*
X160566548Y-78536606D01*
X160366338Y-78629966D01*
X160185379Y-78756674D01*
X160029174Y-78912879D01*
X159902466Y-79093838D01*
X159862382Y-79179799D01*
X159816209Y-79232238D01*
X159749016Y-79251390D01*
X159682135Y-79231174D01*
X159637618Y-79179799D01*
X159609441Y-79119374D01*
X159597534Y-79093839D01*
X159470826Y-78912880D01*
X159314620Y-78756674D01*
X159133662Y-78629966D01*
X159095687Y-78612258D01*
X158933451Y-78536606D01*
X158720065Y-78479429D01*
X158551728Y-78464702D01*
X158486659Y-78439250D01*
X158474854Y-78428855D01*
X157661774Y-77615774D01*
X157628289Y-77554451D01*
X157627838Y-77503902D01*
X157666034Y-77311880D01*
X157685329Y-77017500D01*
X157666034Y-76723120D01*
X157608481Y-76433778D01*
X157513652Y-76154423D01*
X157383172Y-75889836D01*
X157219273Y-75644543D01*
X157024758Y-75422742D01*
X156802957Y-75228227D01*
X156799575Y-75225967D01*
X156561039Y-75066582D01*
X156561034Y-75066579D01*
X156557665Y-75064328D01*
X156554036Y-75062538D01*
X156554025Y-75062532D01*
X156296720Y-74935644D01*
X156296713Y-74935641D01*
X156293077Y-74933848D01*
X156281562Y-74929939D01*
X156017566Y-74840323D01*
X156017553Y-74840319D01*
X156013722Y-74839019D01*
X156009745Y-74838228D01*
X156009738Y-74838226D01*
X155728362Y-74782258D01*
X155728361Y-74782257D01*
X155724380Y-74781466D01*
X155720330Y-74781200D01*
X155720326Y-74781200D01*
X155434058Y-74762437D01*
X155430000Y-74762171D01*
X155425942Y-74762437D01*
X155139673Y-74781200D01*
X155139667Y-74781200D01*
X155135620Y-74781466D01*
X155131640Y-74782257D01*
X155131637Y-74782258D01*
X154850261Y-74838226D01*
X154850250Y-74838228D01*
X154846278Y-74839019D01*
X154842449Y-74840318D01*
X154842433Y-74840323D01*
X154570769Y-74932542D01*
X154570762Y-74932544D01*
X154566923Y-74933848D01*
X154563286Y-74935641D01*
X154563280Y-74935644D01*
X154305976Y-75062532D01*
X154305964Y-75062538D01*
X154302336Y-75064328D01*
X154298973Y-75066575D01*
X154298961Y-75066582D01*
X154060424Y-75225967D01*
X154060414Y-75225973D01*
X154057043Y-75228227D01*
X154053992Y-75230902D01*
X154053985Y-75230908D01*
X153838290Y-75420068D01*
X153838282Y-75420075D01*
X153835242Y-75422742D01*
X153832575Y-75425782D01*
X153832568Y-75425790D01*
X153643408Y-75641485D01*
X153643402Y-75641492D01*
X153640727Y-75644543D01*
X153638473Y-75647914D01*
X153638467Y-75647924D01*
X153479082Y-75886461D01*
X153479075Y-75886473D01*
X153476828Y-75889836D01*
X153475038Y-75893464D01*
X153475032Y-75893476D01*
X153348144Y-76150780D01*
X153348141Y-76150786D01*
X153346348Y-76154423D01*
X153345044Y-76158262D01*
X153345042Y-76158269D01*
X153252823Y-76429933D01*
X153252818Y-76429949D01*
X153251519Y-76433778D01*
X153250728Y-76437750D01*
X153250726Y-76437761D01*
X153194758Y-76719137D01*
X153193966Y-76723120D01*
X153193700Y-76727167D01*
X153193700Y-76727173D01*
X153181870Y-76907669D01*
X153174671Y-77017500D01*
X152000500Y-77017500D01*
X152000500Y-69999999D01*
X172564340Y-69999999D01*
X172584936Y-70235407D01*
X172629709Y-70402502D01*
X172646097Y-70463663D01*
X172745965Y-70677830D01*
X172881505Y-70871401D01*
X173048599Y-71038495D01*
X173242170Y-71174035D01*
X173456337Y-71273903D01*
X173684592Y-71335063D01*
X173920000Y-71355659D01*
X174155408Y-71335063D01*
X174383663Y-71273903D01*
X174597830Y-71174035D01*
X174791401Y-71038495D01*
X174958495Y-70871401D01*
X175088426Y-70685839D01*
X175143002Y-70642216D01*
X175212500Y-70635022D01*
X175274855Y-70666545D01*
X175291571Y-70685837D01*
X175421505Y-70871401D01*
X175588599Y-71038495D01*
X175782170Y-71174035D01*
X175996337Y-71273903D01*
X176224591Y-71335062D01*
X176224592Y-71335063D01*
X176459999Y-71355659D01*
X176459999Y-71355658D01*
X176460000Y-71355659D01*
X176695408Y-71335063D01*
X176923663Y-71273903D01*
X177137830Y-71174035D01*
X177331401Y-71038495D01*
X177453329Y-70916566D01*
X177514648Y-70883084D01*
X177584340Y-70888068D01*
X177640274Y-70929939D01*
X177657189Y-70960916D01*
X177706204Y-71092331D01*
X177792454Y-71207546D01*
X177907669Y-71293796D01*
X178042517Y-71344091D01*
X178102127Y-71350500D01*
X179897872Y-71350499D01*
X179957483Y-71344091D01*
X180092331Y-71293796D01*
X180207546Y-71207546D01*
X180293796Y-71092331D01*
X180344091Y-70957483D01*
X180350500Y-70897873D01*
X180350499Y-69102128D01*
X180344091Y-69042517D01*
X180293796Y-68907669D01*
X180207546Y-68792454D01*
X180092331Y-68706204D01*
X179957483Y-68655909D01*
X179897873Y-68649500D01*
X179894550Y-68649500D01*
X178105439Y-68649500D01*
X178105420Y-68649500D01*
X178102128Y-68649501D01*
X178098848Y-68649853D01*
X178098840Y-68649854D01*
X178042515Y-68655909D01*
X177907669Y-68706204D01*
X177792454Y-68792454D01*
X177706204Y-68907669D01*
X177657189Y-69039083D01*
X177615317Y-69095016D01*
X177549852Y-69119433D01*
X177481580Y-69104581D01*
X177453326Y-69083430D01*
X177331404Y-68961508D01*
X177331404Y-68961507D01*
X177331401Y-68961505D01*
X177137830Y-68825965D01*
X176923663Y-68726097D01*
X176862501Y-68709709D01*
X176695407Y-68664936D01*
X176459999Y-68644340D01*
X176224592Y-68664936D01*
X175996336Y-68726097D01*
X175782170Y-68825965D01*
X175588598Y-68961505D01*
X175421508Y-69128595D01*
X175291574Y-69314160D01*
X175236997Y-69357785D01*
X175167498Y-69364977D01*
X175105144Y-69333455D01*
X175088429Y-69314164D01*
X174958495Y-69128599D01*
X174791401Y-68961505D01*
X174597830Y-68825965D01*
X174383663Y-68726097D01*
X174322502Y-68709709D01*
X174155407Y-68664936D01*
X173920000Y-68644340D01*
X173684592Y-68664936D01*
X173456336Y-68726097D01*
X173242170Y-68825965D01*
X173048598Y-68961505D01*
X172881505Y-69128598D01*
X172745965Y-69322170D01*
X172646097Y-69536336D01*
X172584936Y-69764592D01*
X172564340Y-69999999D01*
X152000500Y-69999999D01*
X152000500Y-65124500D01*
X152020185Y-65057461D01*
X152072989Y-65011706D01*
X152124500Y-65000500D01*
X200875500Y-65000500D01*
X200942539Y-65020185D01*
G37*
%TD.AperFunction*%
%TD*%
M02*
