%TF.GenerationSoftware,KiCad,Pcbnew,7.0.2*%
%TF.CreationDate,2023-04-22T20:19:08-03:00*%
%TF.ProjectId,usbsplitter,75736273-706c-4697-9474-65722e6b6963,1.0.1*%
%TF.SameCoordinates,Original*%
%TF.FileFunction,Legend,Top*%
%TF.FilePolarity,Positive*%
%FSLAX46Y46*%
G04 Gerber Fmt 4.6, Leading zero omitted, Abs format (unit mm)*
G04 Created by KiCad (PCBNEW 7.0.2) date 2023-04-22 20:19:08*
%MOMM*%
%LPD*%
G01*
G04 APERTURE LIST*
%ADD10C,0.150000*%
%ADD11C,0.120000*%
G04 APERTURE END LIST*
D10*
X186190476Y-100972857D02*
X186238095Y-100925238D01*
X186238095Y-100925238D02*
X186333333Y-100877619D01*
X186333333Y-100877619D02*
X186571428Y-100877619D01*
X186571428Y-100877619D02*
X186666666Y-100925238D01*
X186666666Y-100925238D02*
X186714285Y-100972857D01*
X186714285Y-100972857D02*
X186761904Y-101068095D01*
X186761904Y-101068095D02*
X186761904Y-101163333D01*
X186761904Y-101163333D02*
X186714285Y-101306190D01*
X186714285Y-101306190D02*
X186142857Y-101877619D01*
X186142857Y-101877619D02*
X186761904Y-101877619D01*
X187380952Y-100877619D02*
X187476190Y-100877619D01*
X187476190Y-100877619D02*
X187571428Y-100925238D01*
X187571428Y-100925238D02*
X187619047Y-100972857D01*
X187619047Y-100972857D02*
X187666666Y-101068095D01*
X187666666Y-101068095D02*
X187714285Y-101258571D01*
X187714285Y-101258571D02*
X187714285Y-101496666D01*
X187714285Y-101496666D02*
X187666666Y-101687142D01*
X187666666Y-101687142D02*
X187619047Y-101782380D01*
X187619047Y-101782380D02*
X187571428Y-101830000D01*
X187571428Y-101830000D02*
X187476190Y-101877619D01*
X187476190Y-101877619D02*
X187380952Y-101877619D01*
X187380952Y-101877619D02*
X187285714Y-101830000D01*
X187285714Y-101830000D02*
X187238095Y-101782380D01*
X187238095Y-101782380D02*
X187190476Y-101687142D01*
X187190476Y-101687142D02*
X187142857Y-101496666D01*
X187142857Y-101496666D02*
X187142857Y-101258571D01*
X187142857Y-101258571D02*
X187190476Y-101068095D01*
X187190476Y-101068095D02*
X187238095Y-100972857D01*
X187238095Y-100972857D02*
X187285714Y-100925238D01*
X187285714Y-100925238D02*
X187380952Y-100877619D01*
X188095238Y-100972857D02*
X188142857Y-100925238D01*
X188142857Y-100925238D02*
X188238095Y-100877619D01*
X188238095Y-100877619D02*
X188476190Y-100877619D01*
X188476190Y-100877619D02*
X188571428Y-100925238D01*
X188571428Y-100925238D02*
X188619047Y-100972857D01*
X188619047Y-100972857D02*
X188666666Y-101068095D01*
X188666666Y-101068095D02*
X188666666Y-101163333D01*
X188666666Y-101163333D02*
X188619047Y-101306190D01*
X188619047Y-101306190D02*
X188047619Y-101877619D01*
X188047619Y-101877619D02*
X188666666Y-101877619D01*
X189000000Y-100877619D02*
X189619047Y-100877619D01*
X189619047Y-100877619D02*
X189285714Y-101258571D01*
X189285714Y-101258571D02*
X189428571Y-101258571D01*
X189428571Y-101258571D02*
X189523809Y-101306190D01*
X189523809Y-101306190D02*
X189571428Y-101353809D01*
X189571428Y-101353809D02*
X189619047Y-101449047D01*
X189619047Y-101449047D02*
X189619047Y-101687142D01*
X189619047Y-101687142D02*
X189571428Y-101782380D01*
X189571428Y-101782380D02*
X189523809Y-101830000D01*
X189523809Y-101830000D02*
X189428571Y-101877619D01*
X189428571Y-101877619D02*
X189142857Y-101877619D01*
X189142857Y-101877619D02*
X189047619Y-101830000D01*
X189047619Y-101830000D02*
X189000000Y-101782380D01*
X190047619Y-101496666D02*
X190809524Y-101496666D01*
X191476190Y-100877619D02*
X191571428Y-100877619D01*
X191571428Y-100877619D02*
X191666666Y-100925238D01*
X191666666Y-100925238D02*
X191714285Y-100972857D01*
X191714285Y-100972857D02*
X191761904Y-101068095D01*
X191761904Y-101068095D02*
X191809523Y-101258571D01*
X191809523Y-101258571D02*
X191809523Y-101496666D01*
X191809523Y-101496666D02*
X191761904Y-101687142D01*
X191761904Y-101687142D02*
X191714285Y-101782380D01*
X191714285Y-101782380D02*
X191666666Y-101830000D01*
X191666666Y-101830000D02*
X191571428Y-101877619D01*
X191571428Y-101877619D02*
X191476190Y-101877619D01*
X191476190Y-101877619D02*
X191380952Y-101830000D01*
X191380952Y-101830000D02*
X191333333Y-101782380D01*
X191333333Y-101782380D02*
X191285714Y-101687142D01*
X191285714Y-101687142D02*
X191238095Y-101496666D01*
X191238095Y-101496666D02*
X191238095Y-101258571D01*
X191238095Y-101258571D02*
X191285714Y-101068095D01*
X191285714Y-101068095D02*
X191333333Y-100972857D01*
X191333333Y-100972857D02*
X191380952Y-100925238D01*
X191380952Y-100925238D02*
X191476190Y-100877619D01*
X192666666Y-101210952D02*
X192666666Y-101877619D01*
X192428571Y-100830000D02*
X192190476Y-101544285D01*
X192190476Y-101544285D02*
X192809523Y-101544285D01*
X153238095Y-91590952D02*
X153238095Y-92257619D01*
X153238095Y-91686190D02*
X153285714Y-91638571D01*
X153285714Y-91638571D02*
X153380952Y-91590952D01*
X153380952Y-91590952D02*
X153523809Y-91590952D01*
X153523809Y-91590952D02*
X153619047Y-91638571D01*
X153619047Y-91638571D02*
X153666666Y-91733809D01*
X153666666Y-91733809D02*
X153666666Y-92257619D01*
X154571428Y-92257619D02*
X154571428Y-91257619D01*
X154571428Y-92210000D02*
X154476190Y-92257619D01*
X154476190Y-92257619D02*
X154285714Y-92257619D01*
X154285714Y-92257619D02*
X154190476Y-92210000D01*
X154190476Y-92210000D02*
X154142857Y-92162380D01*
X154142857Y-92162380D02*
X154095238Y-92067142D01*
X154095238Y-92067142D02*
X154095238Y-91781428D01*
X154095238Y-91781428D02*
X154142857Y-91686190D01*
X154142857Y-91686190D02*
X154190476Y-91638571D01*
X154190476Y-91638571D02*
X154285714Y-91590952D01*
X154285714Y-91590952D02*
X154476190Y-91590952D01*
X154476190Y-91590952D02*
X154571428Y-91638571D01*
X155428571Y-92210000D02*
X155333333Y-92257619D01*
X155333333Y-92257619D02*
X155142857Y-92257619D01*
X155142857Y-92257619D02*
X155047619Y-92210000D01*
X155047619Y-92210000D02*
X155000000Y-92114761D01*
X155000000Y-92114761D02*
X155000000Y-91733809D01*
X155000000Y-91733809D02*
X155047619Y-91638571D01*
X155047619Y-91638571D02*
X155142857Y-91590952D01*
X155142857Y-91590952D02*
X155333333Y-91590952D01*
X155333333Y-91590952D02*
X155428571Y-91638571D01*
X155428571Y-91638571D02*
X155476190Y-91733809D01*
X155476190Y-91733809D02*
X155476190Y-91829047D01*
X155476190Y-91829047D02*
X155000000Y-91924285D01*
X156047619Y-92257619D02*
X155952381Y-92210000D01*
X155952381Y-92210000D02*
X155904762Y-92114761D01*
X155904762Y-92114761D02*
X155904762Y-91257619D01*
X156857143Y-91590952D02*
X156857143Y-92257619D01*
X156428572Y-91590952D02*
X156428572Y-92114761D01*
X156428572Y-92114761D02*
X156476191Y-92210000D01*
X156476191Y-92210000D02*
X156571429Y-92257619D01*
X156571429Y-92257619D02*
X156714286Y-92257619D01*
X156714286Y-92257619D02*
X156809524Y-92210000D01*
X156809524Y-92210000D02*
X156857143Y-92162380D01*
X157761905Y-92210000D02*
X157666667Y-92257619D01*
X157666667Y-92257619D02*
X157476191Y-92257619D01*
X157476191Y-92257619D02*
X157380953Y-92210000D01*
X157380953Y-92210000D02*
X157333334Y-92162380D01*
X157333334Y-92162380D02*
X157285715Y-92067142D01*
X157285715Y-92067142D02*
X157285715Y-91781428D01*
X157285715Y-91781428D02*
X157333334Y-91686190D01*
X157333334Y-91686190D02*
X157380953Y-91638571D01*
X157380953Y-91638571D02*
X157476191Y-91590952D01*
X157476191Y-91590952D02*
X157666667Y-91590952D01*
X157666667Y-91590952D02*
X157761905Y-91638571D01*
X158619048Y-92210000D02*
X158523810Y-92257619D01*
X158523810Y-92257619D02*
X158333334Y-92257619D01*
X158333334Y-92257619D02*
X158238096Y-92210000D01*
X158238096Y-92210000D02*
X158190477Y-92162380D01*
X158190477Y-92162380D02*
X158142858Y-92067142D01*
X158142858Y-92067142D02*
X158142858Y-91781428D01*
X158142858Y-91781428D02*
X158190477Y-91686190D01*
X158190477Y-91686190D02*
X158238096Y-91638571D01*
X158238096Y-91638571D02*
X158333334Y-91590952D01*
X158333334Y-91590952D02*
X158523810Y-91590952D01*
X158523810Y-91590952D02*
X158619048Y-91638571D01*
X159476191Y-92257619D02*
X159476191Y-91733809D01*
X159476191Y-91733809D02*
X159428572Y-91638571D01*
X159428572Y-91638571D02*
X159333334Y-91590952D01*
X159333334Y-91590952D02*
X159142858Y-91590952D01*
X159142858Y-91590952D02*
X159047620Y-91638571D01*
X159476191Y-92210000D02*
X159380953Y-92257619D01*
X159380953Y-92257619D02*
X159142858Y-92257619D01*
X159142858Y-92257619D02*
X159047620Y-92210000D01*
X159047620Y-92210000D02*
X159000001Y-92114761D01*
X159000001Y-92114761D02*
X159000001Y-92019523D01*
X159000001Y-92019523D02*
X159047620Y-91924285D01*
X159047620Y-91924285D02*
X159142858Y-91876666D01*
X159142858Y-91876666D02*
X159380953Y-91876666D01*
X159380953Y-91876666D02*
X159476191Y-91829047D01*
X153666666Y-93210952D02*
X153666666Y-93877619D01*
X153238095Y-93210952D02*
X153238095Y-93734761D01*
X153238095Y-93734761D02*
X153285714Y-93830000D01*
X153285714Y-93830000D02*
X153380952Y-93877619D01*
X153380952Y-93877619D02*
X153523809Y-93877619D01*
X153523809Y-93877619D02*
X153619047Y-93830000D01*
X153619047Y-93830000D02*
X153666666Y-93782380D01*
X154095238Y-93830000D02*
X154190476Y-93877619D01*
X154190476Y-93877619D02*
X154380952Y-93877619D01*
X154380952Y-93877619D02*
X154476190Y-93830000D01*
X154476190Y-93830000D02*
X154523809Y-93734761D01*
X154523809Y-93734761D02*
X154523809Y-93687142D01*
X154523809Y-93687142D02*
X154476190Y-93591904D01*
X154476190Y-93591904D02*
X154380952Y-93544285D01*
X154380952Y-93544285D02*
X154238095Y-93544285D01*
X154238095Y-93544285D02*
X154142857Y-93496666D01*
X154142857Y-93496666D02*
X154095238Y-93401428D01*
X154095238Y-93401428D02*
X154095238Y-93353809D01*
X154095238Y-93353809D02*
X154142857Y-93258571D01*
X154142857Y-93258571D02*
X154238095Y-93210952D01*
X154238095Y-93210952D02*
X154380952Y-93210952D01*
X154380952Y-93210952D02*
X154476190Y-93258571D01*
X154952381Y-93877619D02*
X154952381Y-92877619D01*
X154952381Y-93258571D02*
X155047619Y-93210952D01*
X155047619Y-93210952D02*
X155238095Y-93210952D01*
X155238095Y-93210952D02*
X155333333Y-93258571D01*
X155333333Y-93258571D02*
X155380952Y-93306190D01*
X155380952Y-93306190D02*
X155428571Y-93401428D01*
X155428571Y-93401428D02*
X155428571Y-93687142D01*
X155428571Y-93687142D02*
X155380952Y-93782380D01*
X155380952Y-93782380D02*
X155333333Y-93830000D01*
X155333333Y-93830000D02*
X155238095Y-93877619D01*
X155238095Y-93877619D02*
X155047619Y-93877619D01*
X155047619Y-93877619D02*
X154952381Y-93830000D01*
X155809524Y-93830000D02*
X155904762Y-93877619D01*
X155904762Y-93877619D02*
X156095238Y-93877619D01*
X156095238Y-93877619D02*
X156190476Y-93830000D01*
X156190476Y-93830000D02*
X156238095Y-93734761D01*
X156238095Y-93734761D02*
X156238095Y-93687142D01*
X156238095Y-93687142D02*
X156190476Y-93591904D01*
X156190476Y-93591904D02*
X156095238Y-93544285D01*
X156095238Y-93544285D02*
X155952381Y-93544285D01*
X155952381Y-93544285D02*
X155857143Y-93496666D01*
X155857143Y-93496666D02*
X155809524Y-93401428D01*
X155809524Y-93401428D02*
X155809524Y-93353809D01*
X155809524Y-93353809D02*
X155857143Y-93258571D01*
X155857143Y-93258571D02*
X155952381Y-93210952D01*
X155952381Y-93210952D02*
X156095238Y-93210952D01*
X156095238Y-93210952D02*
X156190476Y-93258571D01*
X156666667Y-93210952D02*
X156666667Y-94210952D01*
X156666667Y-93258571D02*
X156761905Y-93210952D01*
X156761905Y-93210952D02*
X156952381Y-93210952D01*
X156952381Y-93210952D02*
X157047619Y-93258571D01*
X157047619Y-93258571D02*
X157095238Y-93306190D01*
X157095238Y-93306190D02*
X157142857Y-93401428D01*
X157142857Y-93401428D02*
X157142857Y-93687142D01*
X157142857Y-93687142D02*
X157095238Y-93782380D01*
X157095238Y-93782380D02*
X157047619Y-93830000D01*
X157047619Y-93830000D02*
X156952381Y-93877619D01*
X156952381Y-93877619D02*
X156761905Y-93877619D01*
X156761905Y-93877619D02*
X156666667Y-93830000D01*
X157714286Y-93877619D02*
X157619048Y-93830000D01*
X157619048Y-93830000D02*
X157571429Y-93734761D01*
X157571429Y-93734761D02*
X157571429Y-92877619D01*
X158095239Y-93877619D02*
X158095239Y-93210952D01*
X158095239Y-92877619D02*
X158047620Y-92925238D01*
X158047620Y-92925238D02*
X158095239Y-92972857D01*
X158095239Y-92972857D02*
X158142858Y-92925238D01*
X158142858Y-92925238D02*
X158095239Y-92877619D01*
X158095239Y-92877619D02*
X158095239Y-92972857D01*
X158428572Y-93210952D02*
X158809524Y-93210952D01*
X158571429Y-92877619D02*
X158571429Y-93734761D01*
X158571429Y-93734761D02*
X158619048Y-93830000D01*
X158619048Y-93830000D02*
X158714286Y-93877619D01*
X158714286Y-93877619D02*
X158809524Y-93877619D01*
X159000001Y-93210952D02*
X159380953Y-93210952D01*
X159142858Y-92877619D02*
X159142858Y-93734761D01*
X159142858Y-93734761D02*
X159190477Y-93830000D01*
X159190477Y-93830000D02*
X159285715Y-93877619D01*
X159285715Y-93877619D02*
X159380953Y-93877619D01*
X160095239Y-93830000D02*
X160000001Y-93877619D01*
X160000001Y-93877619D02*
X159809525Y-93877619D01*
X159809525Y-93877619D02*
X159714287Y-93830000D01*
X159714287Y-93830000D02*
X159666668Y-93734761D01*
X159666668Y-93734761D02*
X159666668Y-93353809D01*
X159666668Y-93353809D02*
X159714287Y-93258571D01*
X159714287Y-93258571D02*
X159809525Y-93210952D01*
X159809525Y-93210952D02*
X160000001Y-93210952D01*
X160000001Y-93210952D02*
X160095239Y-93258571D01*
X160095239Y-93258571D02*
X160142858Y-93353809D01*
X160142858Y-93353809D02*
X160142858Y-93449047D01*
X160142858Y-93449047D02*
X159666668Y-93544285D01*
X160571430Y-93877619D02*
X160571430Y-93210952D01*
X160571430Y-93401428D02*
X160619049Y-93306190D01*
X160619049Y-93306190D02*
X160666668Y-93258571D01*
X160666668Y-93258571D02*
X160761906Y-93210952D01*
X160761906Y-93210952D02*
X160857144Y-93210952D01*
X161857145Y-93210952D02*
X162095240Y-93877619D01*
X162095240Y-93877619D02*
X162333335Y-93210952D01*
X163238097Y-93877619D02*
X162666669Y-93877619D01*
X162952383Y-93877619D02*
X162952383Y-92877619D01*
X162952383Y-92877619D02*
X162857145Y-93020476D01*
X162857145Y-93020476D02*
X162761907Y-93115714D01*
X162761907Y-93115714D02*
X162666669Y-93163333D01*
X163666669Y-93782380D02*
X163714288Y-93830000D01*
X163714288Y-93830000D02*
X163666669Y-93877619D01*
X163666669Y-93877619D02*
X163619050Y-93830000D01*
X163619050Y-93830000D02*
X163666669Y-93782380D01*
X163666669Y-93782380D02*
X163666669Y-93877619D01*
X164333335Y-92877619D02*
X164428573Y-92877619D01*
X164428573Y-92877619D02*
X164523811Y-92925238D01*
X164523811Y-92925238D02*
X164571430Y-92972857D01*
X164571430Y-92972857D02*
X164619049Y-93068095D01*
X164619049Y-93068095D02*
X164666668Y-93258571D01*
X164666668Y-93258571D02*
X164666668Y-93496666D01*
X164666668Y-93496666D02*
X164619049Y-93687142D01*
X164619049Y-93687142D02*
X164571430Y-93782380D01*
X164571430Y-93782380D02*
X164523811Y-93830000D01*
X164523811Y-93830000D02*
X164428573Y-93877619D01*
X164428573Y-93877619D02*
X164333335Y-93877619D01*
X164333335Y-93877619D02*
X164238097Y-93830000D01*
X164238097Y-93830000D02*
X164190478Y-93782380D01*
X164190478Y-93782380D02*
X164142859Y-93687142D01*
X164142859Y-93687142D02*
X164095240Y-93496666D01*
X164095240Y-93496666D02*
X164095240Y-93258571D01*
X164095240Y-93258571D02*
X164142859Y-93068095D01*
X164142859Y-93068095D02*
X164190478Y-92972857D01*
X164190478Y-92972857D02*
X164238097Y-92925238D01*
X164238097Y-92925238D02*
X164333335Y-92877619D01*
X165095240Y-93782380D02*
X165142859Y-93830000D01*
X165142859Y-93830000D02*
X165095240Y-93877619D01*
X165095240Y-93877619D02*
X165047621Y-93830000D01*
X165047621Y-93830000D02*
X165095240Y-93782380D01*
X165095240Y-93782380D02*
X165095240Y-93877619D01*
X166095239Y-93877619D02*
X165523811Y-93877619D01*
X165809525Y-93877619D02*
X165809525Y-92877619D01*
X165809525Y-92877619D02*
X165714287Y-93020476D01*
X165714287Y-93020476D02*
X165619049Y-93115714D01*
X165619049Y-93115714D02*
X165523811Y-93163333D01*
%TO.C,OUT2*%
X155523809Y-81540119D02*
X155714285Y-81540119D01*
X155714285Y-81540119D02*
X155809523Y-81587738D01*
X155809523Y-81587738D02*
X155904761Y-81682976D01*
X155904761Y-81682976D02*
X155952380Y-81873452D01*
X155952380Y-81873452D02*
X155952380Y-82206785D01*
X155952380Y-82206785D02*
X155904761Y-82397261D01*
X155904761Y-82397261D02*
X155809523Y-82492500D01*
X155809523Y-82492500D02*
X155714285Y-82540119D01*
X155714285Y-82540119D02*
X155523809Y-82540119D01*
X155523809Y-82540119D02*
X155428571Y-82492500D01*
X155428571Y-82492500D02*
X155333333Y-82397261D01*
X155333333Y-82397261D02*
X155285714Y-82206785D01*
X155285714Y-82206785D02*
X155285714Y-81873452D01*
X155285714Y-81873452D02*
X155333333Y-81682976D01*
X155333333Y-81682976D02*
X155428571Y-81587738D01*
X155428571Y-81587738D02*
X155523809Y-81540119D01*
X156380952Y-81540119D02*
X156380952Y-82349642D01*
X156380952Y-82349642D02*
X156428571Y-82444880D01*
X156428571Y-82444880D02*
X156476190Y-82492500D01*
X156476190Y-82492500D02*
X156571428Y-82540119D01*
X156571428Y-82540119D02*
X156761904Y-82540119D01*
X156761904Y-82540119D02*
X156857142Y-82492500D01*
X156857142Y-82492500D02*
X156904761Y-82444880D01*
X156904761Y-82444880D02*
X156952380Y-82349642D01*
X156952380Y-82349642D02*
X156952380Y-81540119D01*
X157285714Y-81540119D02*
X157857142Y-81540119D01*
X157571428Y-82540119D02*
X157571428Y-81540119D01*
X158142857Y-81635357D02*
X158190476Y-81587738D01*
X158190476Y-81587738D02*
X158285714Y-81540119D01*
X158285714Y-81540119D02*
X158523809Y-81540119D01*
X158523809Y-81540119D02*
X158619047Y-81587738D01*
X158619047Y-81587738D02*
X158666666Y-81635357D01*
X158666666Y-81635357D02*
X158714285Y-81730595D01*
X158714285Y-81730595D02*
X158714285Y-81825833D01*
X158714285Y-81825833D02*
X158666666Y-81968690D01*
X158666666Y-81968690D02*
X158095238Y-82540119D01*
X158095238Y-82540119D02*
X158714285Y-82540119D01*
%TO.C,OUT1*%
X184523809Y-81540119D02*
X184714285Y-81540119D01*
X184714285Y-81540119D02*
X184809523Y-81587738D01*
X184809523Y-81587738D02*
X184904761Y-81682976D01*
X184904761Y-81682976D02*
X184952380Y-81873452D01*
X184952380Y-81873452D02*
X184952380Y-82206785D01*
X184952380Y-82206785D02*
X184904761Y-82397261D01*
X184904761Y-82397261D02*
X184809523Y-82492500D01*
X184809523Y-82492500D02*
X184714285Y-82540119D01*
X184714285Y-82540119D02*
X184523809Y-82540119D01*
X184523809Y-82540119D02*
X184428571Y-82492500D01*
X184428571Y-82492500D02*
X184333333Y-82397261D01*
X184333333Y-82397261D02*
X184285714Y-82206785D01*
X184285714Y-82206785D02*
X184285714Y-81873452D01*
X184285714Y-81873452D02*
X184333333Y-81682976D01*
X184333333Y-81682976D02*
X184428571Y-81587738D01*
X184428571Y-81587738D02*
X184523809Y-81540119D01*
X185380952Y-81540119D02*
X185380952Y-82349642D01*
X185380952Y-82349642D02*
X185428571Y-82444880D01*
X185428571Y-82444880D02*
X185476190Y-82492500D01*
X185476190Y-82492500D02*
X185571428Y-82540119D01*
X185571428Y-82540119D02*
X185761904Y-82540119D01*
X185761904Y-82540119D02*
X185857142Y-82492500D01*
X185857142Y-82492500D02*
X185904761Y-82444880D01*
X185904761Y-82444880D02*
X185952380Y-82349642D01*
X185952380Y-82349642D02*
X185952380Y-81540119D01*
X186285714Y-81540119D02*
X186857142Y-81540119D01*
X186571428Y-82540119D02*
X186571428Y-81540119D01*
X187714285Y-82540119D02*
X187142857Y-82540119D01*
X187428571Y-82540119D02*
X187428571Y-81540119D01*
X187428571Y-81540119D02*
X187333333Y-81682976D01*
X187333333Y-81682976D02*
X187238095Y-81778214D01*
X187238095Y-81778214D02*
X187142857Y-81825833D01*
%TO.C,IN1*%
X169000000Y-86385119D02*
X169000000Y-85385119D01*
X169476190Y-86385119D02*
X169476190Y-85385119D01*
X169476190Y-85385119D02*
X170047618Y-86385119D01*
X170047618Y-86385119D02*
X170047618Y-85385119D01*
X171047618Y-86385119D02*
X170476190Y-86385119D01*
X170761904Y-86385119D02*
X170761904Y-85385119D01*
X170761904Y-85385119D02*
X170666666Y-85527976D01*
X170666666Y-85527976D02*
X170571428Y-85623214D01*
X170571428Y-85623214D02*
X170476190Y-85670833D01*
D11*
%TO.C,SW4*%
X172590000Y-80670000D02*
X172590000Y-83330000D01*
X177730000Y-80670000D02*
X172590000Y-80670000D01*
X179000000Y-80670000D02*
X180330000Y-80670000D01*
X177730000Y-83330000D02*
X172590000Y-83330000D01*
X180330000Y-80670000D02*
X180330000Y-82000000D01*
X177730000Y-80670000D02*
X177730000Y-83330000D01*
%TO.C,SW3*%
X172590000Y-72670000D02*
X172590000Y-75330000D01*
X177730000Y-72670000D02*
X172590000Y-72670000D01*
X179000000Y-72670000D02*
X180330000Y-72670000D01*
X177730000Y-75330000D02*
X172590000Y-75330000D01*
X180330000Y-72670000D02*
X180330000Y-74000000D01*
X177730000Y-72670000D02*
X177730000Y-75330000D01*
%TO.C,SW2*%
X172590000Y-76670000D02*
X172590000Y-79330000D01*
X177730000Y-76670000D02*
X172590000Y-76670000D01*
X179000000Y-76670000D02*
X180330000Y-76670000D01*
X177730000Y-79330000D02*
X172590000Y-79330000D01*
X180330000Y-76670000D02*
X180330000Y-78000000D01*
X177730000Y-76670000D02*
X177730000Y-79330000D01*
%TO.C,SW1*%
X172590000Y-68670000D02*
X172590000Y-71330000D01*
X177730000Y-68670000D02*
X172590000Y-68670000D01*
X179000000Y-68670000D02*
X180330000Y-68670000D01*
X177730000Y-71330000D02*
X172590000Y-71330000D01*
X180330000Y-68670000D02*
X180330000Y-70000000D01*
X177730000Y-68670000D02*
X177730000Y-71330000D01*
%TO.C,OUT2*%
X154640000Y-75167500D02*
X154640000Y-66627500D01*
X154640000Y-78867500D02*
X154640000Y-80847500D01*
X165000000Y-81727500D02*
X166000000Y-81727500D01*
X169360000Y-80847500D02*
X169360000Y-78867500D01*
X166000000Y-81727500D02*
X165500000Y-81227500D01*
X169360000Y-66627500D02*
X154640000Y-66627500D01*
X165500000Y-81227500D02*
X165000000Y-81727500D01*
X169360000Y-80847500D02*
X154640000Y-80847500D01*
X169360000Y-75167500D02*
X169360000Y-66627500D01*
%TO.C,OUT1*%
X183640000Y-75167500D02*
X183640000Y-66627500D01*
X183640000Y-78867500D02*
X183640000Y-80847500D01*
X194000000Y-81727500D02*
X195000000Y-81727500D01*
X198360000Y-80847500D02*
X198360000Y-78867500D01*
X195000000Y-81727500D02*
X194500000Y-81227500D01*
X198360000Y-66627500D02*
X183640000Y-66627500D01*
X194500000Y-81227500D02*
X194000000Y-81727500D01*
X198360000Y-80847500D02*
X183640000Y-80847500D01*
X198360000Y-75167500D02*
X198360000Y-66627500D01*
%TO.C,IN1*%
X183360000Y-92832500D02*
X183360000Y-101372500D01*
X183360000Y-89132500D02*
X183360000Y-87152500D01*
X173000000Y-86272500D02*
X172000000Y-86272500D01*
X168640000Y-87152500D02*
X168640000Y-89132500D01*
X172000000Y-86272500D02*
X172500000Y-86772500D01*
X168640000Y-101372500D02*
X183360000Y-101372500D01*
X172500000Y-86772500D02*
X173000000Y-86272500D01*
X168640000Y-87152500D02*
X183360000Y-87152500D01*
X168640000Y-92832500D02*
X168640000Y-101372500D01*
%TD*%
M02*
